<svg width="4576" height="1000" viewBox="0 0 4576 1000" fill="none" xmlns="http://www.w3.org/2000/svg">
<g clip-path="url(#clip0_1111_7654)">
<rect width="4576" height="1000" fill="black"/>
<g clip-path="url(#clip1_1111_7654)">
<path fill-rule="evenodd" clip-rule="evenodd" d="M878.592 26.64H915.2V35.792H878.592V72.4H869.44V35.792H787.072V72.4H777.92V35.792H695.552V72.4H686.4V35.792H604.032V72.4H594.88V35.792H512.512V72.4H503.36V35.792H420.992V72.4H411.84V35.792H329.472V72.4H320.32V35.792H237.952V72.4H228.8V35.792H146.432V72.4H137.28V35.792H0V26.64H137.28V-55.728H0V-64.88H137.28V-147.248H0V-156.4H137.28V-238.768H0V-247.92H137.28V-330.288H0V-339.44H137.28V-421.808H0V-430.96H137.28V-513.328H0V-522.48H137.28V-604.848H0V-614H137.28V-696.368H0V-705.52H137.28V-842.8H146.432V-705.52H228.8V-842.8H237.952V-705.52H320.32V-842.8H329.472V-705.52H411.84V-842.8H420.992V-705.52H503.36V-842.8H512.512V-705.52H594.88V-842.8H604.032V-705.52H686.4V-842.8H695.552V-705.52H777.92V-842.8H787.072V-705.52H869.44V-842.8H878.592V-705.52H915.2V-696.368H878.592V-614H915.2V-604.848H878.592V-522.48H915.2V-513.328H878.592V-430.96H915.2V-421.808H878.592V-339.44H915.2V-330.288H878.592V-247.92H915.2V-238.768H878.592V-156.4H915.2V-147.248H878.592V-64.88H915.2V-55.728H878.592V26.64ZM869.44 26.64V-55.728H787.072V26.64H869.44ZM777.92 26.64V-55.728H695.552V26.64H777.92ZM686.4 26.64V-55.728H604.032V26.64H686.4ZM594.88 26.64V-55.728H512.512V26.64H594.88ZM503.36 26.64V-55.728H420.992V26.64H503.36ZM411.84 26.64V-55.728H329.472V26.64H411.84ZM320.32 26.64V-55.728H237.952V26.64H320.32ZM228.8 26.64V-55.728H146.432V26.64H228.8ZM146.432 -64.88H228.8V-147.248H146.432V-64.88ZM237.952 -64.88H320.32V-147.248H237.952V-64.88ZM329.472 -64.88H411.84V-147.248H329.472V-64.88ZM420.992 -64.88H503.36V-147.248H420.992V-64.88ZM512.512 -64.88H594.88V-147.248H512.512V-64.88ZM604.032 -64.88H686.4V-147.248H604.032V-64.88ZM695.552 -64.88H777.92V-147.248H695.552V-64.88ZM787.072 -64.88H869.44V-147.248H787.072V-64.88ZM869.44 -156.4V-238.768H787.072V-156.4H869.44ZM777.92 -156.4V-238.768H695.552V-156.4H777.92ZM686.4 -156.4V-238.768H604.032V-156.4H686.4ZM594.88 -156.4V-238.768H512.512V-156.4H594.88ZM503.36 -156.4V-238.768H420.992V-156.4H503.36ZM411.84 -156.4V-238.768H329.472V-156.4H411.84ZM320.32 -156.4V-238.768H237.952V-156.4H320.32ZM228.8 -156.4V-238.768H146.432V-156.4H228.8ZM146.432 -247.92H228.8V-330.288H146.432V-247.92ZM237.952 -247.92H320.32V-330.288H237.952V-247.92ZM329.472 -247.92H411.84V-330.288H329.472V-247.92ZM420.992 -247.92H503.36V-330.288H420.992V-247.92ZM512.512 -247.92H594.88V-330.288H512.512V-247.92ZM604.032 -247.92H686.4V-330.288H604.032V-247.92ZM695.552 -247.92H777.92V-330.288H695.552V-247.92ZM787.072 -247.92H869.44V-330.288H787.072V-247.92ZM869.44 -339.44V-421.808H787.072V-339.44H869.44ZM777.92 -339.44V-421.808H695.552V-339.44H777.92ZM686.4 -339.44V-421.808H604.032V-339.44H686.4ZM594.88 -339.44V-421.808H512.512V-339.44H594.88ZM503.36 -339.44V-421.808H420.992V-339.44H503.36ZM411.84 -339.44V-421.808H329.472V-339.44H411.84ZM320.32 -339.44V-421.808H237.952V-339.44H320.32ZM228.8 -339.44V-421.808H146.432V-339.44H228.8ZM146.432 -430.96H228.8V-513.328H146.432V-430.96ZM237.952 -430.96H320.32V-513.328H237.952V-430.96ZM329.472 -430.96H411.84V-513.328H329.472V-430.96ZM420.992 -430.96H503.36V-513.328H420.992V-430.96ZM512.512 -430.96H594.88V-513.328H512.512V-430.96ZM604.032 -430.96H686.4V-513.328H604.032V-430.96ZM695.552 -430.96H777.92V-513.328H695.552V-430.96ZM787.072 -430.96H869.44V-513.328H787.072V-430.96ZM869.44 -522.48V-604.848H787.072V-522.48H869.44ZM777.92 -522.48V-604.848H695.552V-522.48H777.92ZM686.4 -522.48V-604.848H604.032V-522.48H686.4ZM594.88 -522.48V-604.848H512.512V-522.48H594.88ZM503.36 -522.48V-604.848H420.992V-522.48H503.36ZM411.84 -522.48V-604.848H329.472V-522.48H411.84ZM320.32 -522.48V-604.848H237.952V-522.48H320.32ZM228.8 -522.48V-604.848H146.432V-522.48H228.8ZM146.432 -614H228.8V-696.368H146.432V-614ZM237.952 -614H320.32V-696.368H237.952V-614ZM329.472 -614H411.84V-696.368H329.472V-614ZM420.992 -614H503.36V-696.368H420.992V-614ZM512.512 -614H594.88V-696.368H512.512V-614ZM604.032 -614H686.4V-696.368H604.032V-614ZM695.552 -614H777.92V-696.368H695.552V-614ZM787.072 -614H869.44V-696.368H787.072V-614Z" fill="#262626"/>
<path fill-rule="evenodd" clip-rule="evenodd" d="M54.912 -797.04V-842.8H45.76V-797.04H0V-787.888H45.76V72.4H54.912V-787.888H915.2V-797.04H54.912Z" fill="#3A3A3A"/>
<path fill-rule="evenodd" clip-rule="evenodd" d="M878.592 941.84H915.2V950.992H878.592V987.6H869.44V950.992H787.072V987.6H777.92V950.992H695.552V987.6H686.4V950.992H604.032V987.6H594.88V950.992H512.512V987.6H503.36V950.992H420.992V987.6H411.84V950.992H329.472V987.6H320.32V950.992H237.952V987.6H228.8V950.992H146.432V987.6H137.28V950.992H0V941.84H137.28V859.472H0V850.32H137.28V767.952H0V758.8H137.28V676.432H0V667.28H137.28V584.912H0V575.76H137.28V493.392H0V484.24H137.28V401.872H0V392.72H137.28V310.352H0V301.2H137.28V218.832H0V209.68H137.28V72.4H146.432V209.68H228.8V72.4H237.952V209.68H320.32V72.4H329.472V209.68H411.84V72.4H420.992V209.68H503.36V72.4H512.512V209.68H594.88V72.4H604.032V209.68H686.4V72.4H695.552V209.68H777.92V72.4H787.072V209.68H869.44V72.4H878.592V209.68H915.2V218.832H878.592V301.2H915.2V310.352H878.592V392.72H915.2V401.872H878.592V484.24H915.2V493.392H878.592V575.76H915.2V584.912H878.592V667.28H915.2V676.432H878.592V758.8H915.2V767.952H878.592V850.32H915.2V859.472H878.592V941.84ZM869.44 941.84V859.472H787.072V941.84H869.44ZM777.92 941.84V859.472H695.552V941.84H777.92ZM686.4 941.84V859.472H604.032V941.84H686.4ZM594.88 941.84V859.472H512.512V941.84H594.88ZM503.36 941.84V859.472H420.992V941.84H503.36ZM411.84 941.84V859.472H329.472V941.84H411.84ZM320.32 941.84V859.472H237.952V941.84H320.32ZM228.8 941.84V859.472H146.432V941.84H228.8ZM146.432 850.32H228.8V767.952H146.432V850.32ZM237.952 850.32H320.32V767.952H237.952V850.32ZM329.472 850.32H411.84V767.952H329.472V850.32ZM420.992 850.32H503.36V767.952H420.992V850.32ZM512.512 850.32H594.88V767.952H512.512V850.32ZM604.032 850.32H686.4V767.952H604.032V850.32ZM695.552 850.32H777.92V767.952H695.552V850.32ZM787.072 850.32H869.44V767.952H787.072V850.32ZM869.44 758.8V676.432H787.072V758.8H869.44ZM777.92 758.8V676.432H695.552V758.8H777.92ZM686.4 758.8V676.432H604.032V758.8H686.4ZM594.88 758.8V676.432H512.512V758.8H594.88ZM503.36 758.8V676.432H420.992V758.8H503.36ZM411.84 758.8V676.432H329.472V758.8H411.84ZM320.32 758.8V676.432H237.952V758.8H320.32ZM228.8 758.8V676.432H146.432V758.8H228.8ZM146.432 667.28H228.8V584.912H146.432V667.28ZM237.952 667.28H320.32V584.912H237.952V667.28ZM329.472 667.28H411.84V584.912H329.472V667.28ZM420.992 667.28H503.36V584.912H420.992V667.28ZM512.512 667.28H594.88V584.912H512.512V667.28ZM604.032 667.28H686.4V584.912H604.032V667.28ZM695.552 667.28H777.92V584.912H695.552V667.28ZM787.072 667.28H869.44V584.912H787.072V667.28ZM869.44 575.76V493.392H787.072V575.76H869.44ZM777.92 575.76V493.392H695.552V575.76H777.92ZM686.4 575.76V493.392H604.032V575.76H686.4ZM594.88 575.76V493.392H512.512V575.76H594.88ZM503.36 575.76V493.392H420.992V575.76H503.36ZM411.84 575.76V493.392H329.472V575.76H411.84ZM320.32 575.76V493.392H237.952V575.76H320.32ZM228.8 575.76V493.392H146.432V575.76H228.8ZM146.432 484.24H228.8V401.872H146.432V484.24ZM237.952 484.24H320.32V401.872H237.952V484.24ZM329.472 484.24H411.84V401.872H329.472V484.24ZM420.992 484.24H503.36V401.872H420.992V484.24ZM512.512 484.24H594.88V401.872H512.512V484.24ZM604.032 484.24H686.4V401.872H604.032V484.24ZM695.552 484.24H777.92V401.872H695.552V484.24ZM787.072 484.24H869.44V401.872H787.072V484.24ZM869.44 392.72V310.352H787.072V392.72H869.44ZM777.92 392.72V310.352H695.552V392.72H777.92ZM686.4 392.72V310.352H604.032V392.72H686.4ZM594.88 392.72V310.352H512.512V392.72H594.88ZM503.36 392.72V310.352H420.992V392.72H503.36ZM411.84 392.72V310.352H329.472V392.72H411.84ZM320.32 392.72V310.352H237.952V392.72H320.32ZM228.8 392.72V310.352H146.432V392.72H228.8ZM146.432 301.2H228.8V218.832H146.432V301.2ZM237.952 301.2H320.32V218.832H237.952V301.2ZM329.472 301.2H411.84V218.832H329.472V301.2ZM420.992 301.2H503.36V218.832H420.992V301.2ZM512.512 301.2H594.88V218.832H512.512V301.2ZM604.032 301.2H686.4V218.832H604.032V301.2ZM695.552 301.2H777.92V218.832H695.552V301.2ZM787.072 301.2H869.44V218.832H787.072V301.2Z" fill="#262626"/>
<path fill-rule="evenodd" clip-rule="evenodd" d="M54.912 118.16V72.4H45.76V118.16H0V127.312H45.76V987.6H54.912V127.312H915.2V118.16H54.912Z" fill="#3A3A3A"/>
<path fill-rule="evenodd" clip-rule="evenodd" d="M878.592 1857.04H915.2V1866.19H878.592V1902.8H869.44V1866.19H787.072V1902.8H777.92V1866.19H695.552V1902.8H686.4V1866.19H604.032V1902.8H594.88V1866.19H512.512V1902.8H503.36V1866.19H420.992V1902.8H411.84V1866.19H329.472V1902.8H320.32V1866.19H237.952V1902.8H228.8V1866.19H146.432V1902.8H137.28V1866.19H0V1857.04H137.28V1774.67H0V1765.52H137.28V1683.15H0V1674H137.28V1591.63H0V1582.48H137.28V1500.11H0V1490.96H137.28V1408.59H0V1399.44H137.28V1317.07H0V1307.92H137.28V1225.55H0V1216.4H137.28V1134.03H0V1124.88H137.28V987.6H146.432V1124.88H228.8V987.6H237.952V1124.88H320.32V987.6H329.472V1124.88H411.84V987.6H420.992V1124.88H503.36V987.6H512.512V1124.88H594.88V987.6H604.032V1124.88H686.4V987.6H695.552V1124.88H777.92V987.6H787.072V1124.88H869.44V987.6H878.592V1124.88H915.2V1134.03H878.592V1216.4H915.2V1225.55H878.592V1307.92H915.2V1317.07H878.592V1399.44H915.2V1408.59H878.592V1490.96H915.2V1500.11H878.592V1582.48H915.2V1591.63H878.592V1674H915.2V1683.15H878.592V1765.52H915.2V1774.67H878.592V1857.04ZM869.44 1857.04V1774.67H787.072V1857.04H869.44ZM777.92 1857.04V1774.67H695.552V1857.04H777.92ZM686.4 1857.04V1774.67H604.032V1857.04H686.4ZM594.88 1857.04V1774.67H512.512V1857.04H594.88ZM503.36 1857.04V1774.67H420.992V1857.04H503.36ZM411.84 1857.04V1774.67H329.472V1857.04H411.84ZM320.32 1857.04V1774.67H237.952V1857.04H320.32ZM228.8 1857.04V1774.67H146.432V1857.04H228.8ZM146.432 1765.52H228.8V1683.15H146.432V1765.52ZM237.952 1765.52H320.32V1683.15H237.952V1765.52ZM329.472 1765.52H411.84V1683.15H329.472V1765.52ZM420.992 1765.52H503.36V1683.15H420.992V1765.52ZM512.512 1765.52H594.88V1683.15H512.512V1765.52ZM604.032 1765.52H686.4V1683.15H604.032V1765.52ZM695.552 1765.52H777.92V1683.15H695.552V1765.52ZM787.072 1765.52H869.44V1683.15H787.072V1765.52ZM869.44 1674V1591.63H787.072V1674H869.44ZM777.92 1674V1591.63H695.552V1674H777.92ZM686.4 1674V1591.63H604.032V1674H686.4ZM594.88 1674V1591.63H512.512V1674H594.88ZM503.36 1674V1591.63H420.992V1674H503.36ZM411.84 1674V1591.63H329.472V1674H411.84ZM320.32 1674V1591.63H237.952V1674H320.32ZM228.8 1674V1591.63H146.432V1674H228.8ZM146.432 1582.48H228.8V1500.11H146.432V1582.48ZM237.952 1582.48H320.32V1500.11H237.952V1582.48ZM329.472 1582.48H411.84V1500.11H329.472V1582.48ZM420.992 1582.48H503.36V1500.11H420.992V1582.48ZM512.512 1582.48H594.88V1500.11H512.512V1582.48ZM604.032 1582.48H686.4V1500.11H604.032V1582.48ZM695.552 1582.48H777.92V1500.11H695.552V1582.48ZM787.072 1582.48H869.44V1500.11H787.072V1582.48ZM869.44 1490.96V1408.59H787.072V1490.96H869.44ZM777.92 1490.96V1408.59H695.552V1490.96H777.92ZM686.4 1490.96V1408.59H604.032V1490.96H686.4ZM594.88 1490.96V1408.59H512.512V1490.96H594.88ZM503.36 1490.96V1408.59H420.992V1490.96H503.36ZM411.84 1490.96V1408.59H329.472V1490.96H411.84ZM320.32 1490.96V1408.59H237.952V1490.96H320.32ZM228.8 1490.96V1408.59H146.432V1490.96H228.8ZM146.432 1399.44H228.8V1317.07H146.432V1399.44ZM237.952 1399.44H320.32V1317.07H237.952V1399.44ZM329.472 1399.44H411.84V1317.07H329.472V1399.44ZM420.992 1399.44H503.36V1317.07H420.992V1399.44ZM512.512 1399.44H594.88V1317.07H512.512V1399.44ZM604.032 1399.44H686.4V1317.07H604.032V1399.44ZM695.552 1399.44H777.92V1317.07H695.552V1399.44ZM787.072 1399.44H869.44V1317.07H787.072V1399.44ZM869.44 1307.92V1225.55H787.072V1307.92H869.44ZM777.92 1307.92V1225.55H695.552V1307.92H777.92ZM686.4 1307.92V1225.55H604.032V1307.92H686.4ZM594.88 1307.92V1225.55H512.512V1307.92H594.88ZM503.36 1307.92V1225.55H420.992V1307.92H503.36ZM411.84 1307.92V1225.55H329.472V1307.92H411.84ZM320.32 1307.92V1225.55H237.952V1307.92H320.32ZM228.8 1307.92V1225.55H146.432V1307.92H228.8ZM146.432 1216.4H228.8V1134.03H146.432V1216.4ZM237.952 1216.4H320.32V1134.03H237.952V1216.4ZM329.472 1216.4H411.84V1134.03H329.472V1216.4ZM420.992 1216.4H503.36V1134.03H420.992V1216.4ZM512.512 1216.4H594.88V1134.03H512.512V1216.4ZM604.032 1216.4H686.4V1134.03H604.032V1216.4ZM695.552 1216.4H777.92V1134.03H695.552V1216.4ZM787.072 1216.4H869.44V1134.03H787.072V1216.4Z" fill="#262626"/>
<path fill-rule="evenodd" clip-rule="evenodd" d="M54.912 1033.36V987.6H45.76V1033.36H0V1042.51H45.76V1902.8H54.912V1042.51H915.2V1033.36H54.912Z" fill="#3A3A3A"/>
<path fill-rule="evenodd" clip-rule="evenodd" d="M1793.79 26.64H1830.4V35.792H1793.79V72.4H1784.64V35.792H1702.27V72.4H1693.12V35.792H1610.75V72.4H1601.6V35.792H1519.23V72.4H1510.08V35.792H1427.71V72.4H1418.56V35.792H1336.19V72.4H1327.04V35.792H1244.67V72.4H1235.52V35.792H1153.15V72.4H1144V35.792H1061.63V72.4H1052.48V35.792H915.199V26.64H1052.48V-55.728H915.199V-64.88H1052.48V-147.248H915.199V-156.4H1052.48V-238.768H915.199V-247.92H1052.48V-330.288H915.199V-339.44H1052.48V-421.808H915.199V-430.96H1052.48V-513.328H915.199V-522.48H1052.48V-604.848H915.199V-614H1052.48V-696.368H915.199V-705.52H1052.48V-842.8H1061.63V-705.52H1144V-842.8H1153.15V-705.52H1235.52V-842.8H1244.67V-705.52H1327.04V-842.8H1336.19V-705.52H1418.56V-842.8H1427.71V-705.52H1510.08V-842.8H1519.23V-705.52H1601.6V-842.8H1610.75V-705.52H1693.12V-842.8H1702.27V-705.52H1784.64V-842.8H1793.79V-705.52H1830.4V-696.368H1793.79V-614H1830.4V-604.848H1793.79V-522.48H1830.4V-513.328H1793.79V-430.96H1830.4V-421.808H1793.79V-339.44H1830.4V-330.288H1793.79V-247.92H1830.4V-238.768H1793.79V-156.4H1830.4V-147.248H1793.79V-64.88H1830.4V-55.728H1793.79V26.64ZM1784.64 26.64V-55.728H1702.27V26.64H1784.64ZM1693.12 26.64V-55.728H1610.75V26.64H1693.12ZM1601.6 26.64V-55.728H1519.23V26.64H1601.6ZM1510.08 26.64V-55.728H1427.71V26.64H1510.08ZM1418.56 26.64V-55.728H1336.19V26.64H1418.56ZM1327.04 26.64V-55.728H1244.67V26.64H1327.04ZM1235.52 26.64V-55.728H1153.15V26.64H1235.52ZM1144 26.64V-55.728H1061.63V26.64H1144ZM1061.63 -64.88H1144V-147.248H1061.63V-64.88ZM1153.15 -64.88H1235.52V-147.248H1153.15V-64.88ZM1244.67 -64.88H1327.04V-147.248H1244.67V-64.88ZM1336.19 -64.88H1418.56V-147.248H1336.19V-64.88ZM1427.71 -64.88H1510.08V-147.248H1427.71V-64.88ZM1519.23 -64.88H1601.6V-147.248H1519.23V-64.88ZM1610.75 -64.88H1693.12V-147.248H1610.75V-64.88ZM1702.27 -64.88H1784.64V-147.248H1702.27V-64.88ZM1784.64 -156.4V-238.768H1702.27V-156.4H1784.64ZM1693.12 -156.4V-238.768H1610.75V-156.4H1693.12ZM1601.6 -156.4V-238.768H1519.23V-156.4H1601.6ZM1510.08 -156.4V-238.768H1427.71V-156.4H1510.08ZM1418.56 -156.4V-238.768H1336.19V-156.4H1418.56ZM1327.04 -156.4V-238.768H1244.67V-156.4H1327.04ZM1235.52 -156.4V-238.768H1153.15V-156.4H1235.52ZM1144 -156.4V-238.768H1061.63V-156.4H1144ZM1061.63 -247.92H1144V-330.288H1061.63V-247.92ZM1153.15 -247.92H1235.52V-330.288H1153.15V-247.92ZM1244.67 -247.92H1327.04V-330.288H1244.67V-247.92ZM1336.19 -247.92H1418.56V-330.288H1336.19V-247.92ZM1427.71 -247.92H1510.08V-330.288H1427.71V-247.92ZM1519.23 -247.92H1601.6V-330.288H1519.23V-247.92ZM1610.75 -247.92H1693.12V-330.288H1610.75V-247.92ZM1702.27 -247.92H1784.64V-330.288H1702.27V-247.92ZM1784.64 -339.44V-421.808H1702.27V-339.44H1784.64ZM1693.12 -339.44V-421.808H1610.75V-339.44H1693.12ZM1601.6 -339.44V-421.808H1519.23V-339.44H1601.6ZM1510.08 -339.44V-421.808H1427.71V-339.44H1510.08ZM1418.56 -339.44V-421.808H1336.19V-339.44H1418.56ZM1327.04 -339.44V-421.808H1244.67V-339.44H1327.04ZM1235.52 -339.44V-421.808H1153.15V-339.44H1235.52ZM1144 -339.44V-421.808H1061.63V-339.44H1144ZM1061.63 -430.96H1144V-513.328H1061.63V-430.96ZM1153.15 -430.96H1235.52V-513.328H1153.15V-430.96ZM1244.67 -430.96H1327.04V-513.328H1244.67V-430.96ZM1336.19 -430.96H1418.56V-513.328H1336.19V-430.96ZM1427.71 -430.96H1510.08V-513.328H1427.71V-430.96ZM1519.23 -430.96H1601.6V-513.328H1519.23V-430.96ZM1610.75 -430.96H1693.12V-513.328H1610.75V-430.96ZM1702.27 -430.96H1784.64V-513.328H1702.27V-430.96ZM1784.64 -522.48V-604.848H1702.27V-522.48H1784.64ZM1693.12 -522.48V-604.848H1610.75V-522.48H1693.12ZM1601.6 -522.48V-604.848H1519.23V-522.48H1601.6ZM1510.08 -522.48V-604.848H1427.71V-522.48H1510.08ZM1418.56 -522.48V-604.848H1336.19V-522.48H1418.56ZM1327.04 -522.48V-604.848H1244.67V-522.48H1327.04ZM1235.52 -522.48V-604.848H1153.15V-522.48H1235.52ZM1144 -522.48V-604.848H1061.63V-522.48H1144ZM1061.63 -614H1144V-696.368H1061.63V-614ZM1153.15 -614H1235.52V-696.368H1153.15V-614ZM1244.67 -614H1327.04V-696.368H1244.67V-614ZM1336.19 -614H1418.56V-696.368H1336.19V-614ZM1427.71 -614H1510.08V-696.368H1427.71V-614ZM1519.23 -614H1601.6V-696.368H1519.23V-614ZM1610.75 -614H1693.12V-696.368H1610.75V-614ZM1702.27 -614H1784.64V-696.368H1702.27V-614Z" fill="#262626"/>
<path fill-rule="evenodd" clip-rule="evenodd" d="M970.111 -797.04V-842.8H960.959V-797.04H915.199V-787.888H960.959V72.4H970.111V-787.888H1830.4V-797.04H970.111Z" fill="#3A3A3A"/>
<path fill-rule="evenodd" clip-rule="evenodd" d="M1793.79 941.84H1830.4V950.992H1793.79V987.6H1784.64V950.992H1702.27V987.6H1693.12V950.992H1610.75V987.6H1601.6V950.992H1519.23V987.6H1510.08V950.992H1427.71V987.6H1418.56V950.992H1336.19V987.6H1327.04V950.992H1244.67V987.6H1235.52V950.992H1153.15V987.6H1144V950.992H1061.63V987.6H1052.48V950.992H915.199V941.84H1052.48V859.472H915.199V850.32H1052.48V767.952H915.199V758.8H1052.48V676.432H915.199V667.28H1052.48V584.912H915.199V575.76H1052.48V493.392H915.199V484.24H1052.48V401.872H915.199V392.72H1052.48V310.352H915.199V301.2H1052.48V218.832H915.199V209.68H1052.48V72.4H1061.63V209.68H1144V72.4H1153.15V209.68H1235.52V72.4H1244.67V209.68H1327.04V72.4H1336.19V209.68H1418.56V72.4H1427.71V209.68H1510.08V72.4H1519.23V209.68H1601.6V72.4H1610.75V209.68H1693.12V72.4H1702.27V209.68H1784.64V72.4H1793.79V209.68H1830.4V218.832H1793.79V301.2H1830.4V310.352H1793.79V392.72H1830.4V401.872H1793.79V484.24H1830.4V493.392H1793.79V575.76H1830.4V584.912H1793.79V667.28H1830.4V676.432H1793.79V758.8H1830.4V767.952H1793.79V850.32H1830.4V859.472H1793.79V941.84ZM1784.64 941.84V859.472H1702.27V941.84H1784.64ZM1693.12 941.84V859.472H1610.75V941.84H1693.12ZM1601.6 941.84V859.472H1519.23V941.84H1601.6ZM1510.08 941.84V859.472H1427.71V941.84H1510.08ZM1418.56 941.84V859.472H1336.19V941.84H1418.56ZM1327.04 941.84V859.472H1244.67V941.84H1327.04ZM1235.52 941.84V859.472H1153.15V941.84H1235.52ZM1144 941.84V859.472H1061.63V941.84H1144ZM1061.63 850.32H1144V767.952H1061.63V850.32ZM1153.15 850.32H1235.52V767.952H1153.15V850.32ZM1244.67 850.32H1327.04V767.952H1244.67V850.32ZM1336.19 850.32H1418.56V767.952H1336.19V850.32ZM1427.71 850.32H1510.08V767.952H1427.71V850.32ZM1519.23 850.32H1601.6V767.952H1519.23V850.32ZM1610.75 850.32H1693.12V767.952H1610.75V850.32ZM1702.27 850.32H1784.64V767.952H1702.27V850.32ZM1784.64 758.8V676.432H1702.27V758.8H1784.64ZM1693.12 758.8V676.432H1610.75V758.8H1693.12ZM1601.6 758.8V676.432H1519.23V758.8H1601.6ZM1510.08 758.8V676.432H1427.71V758.8H1510.08ZM1418.56 758.8V676.432H1336.19V758.8H1418.56ZM1327.04 758.8V676.432H1244.67V758.8H1327.04ZM1235.52 758.8V676.432H1153.15V758.8H1235.52ZM1144 758.8V676.432H1061.63V758.8H1144ZM1061.63 667.28H1144V584.912H1061.63V667.28ZM1153.15 667.28H1235.52V584.912H1153.15V667.28ZM1244.67 667.28H1327.04V584.912H1244.67V667.28ZM1336.19 667.28H1418.56V584.912H1336.19V667.28ZM1427.71 667.28H1510.08V584.912H1427.71V667.28ZM1519.23 667.28H1601.6V584.912H1519.23V667.28ZM1610.75 667.28H1693.12V584.912H1610.75V667.28ZM1702.27 667.28H1784.64V584.912H1702.27V667.28ZM1784.64 575.76V493.392H1702.27V575.76H1784.64ZM1693.12 575.76V493.392H1610.75V575.76H1693.12ZM1601.6 575.76V493.392H1519.23V575.76H1601.6ZM1510.08 575.76V493.392H1427.71V575.76H1510.08ZM1418.56 575.76V493.392H1336.19V575.76H1418.56ZM1327.04 575.76V493.392H1244.67V575.76H1327.04ZM1235.52 575.76V493.392H1153.15V575.76H1235.52ZM1144 575.76V493.392H1061.63V575.76H1144ZM1061.63 484.24H1144V401.872H1061.63V484.24ZM1153.15 484.24H1235.52V401.872H1153.15V484.24ZM1244.67 484.24H1327.04V401.872H1244.67V484.24ZM1336.19 484.24H1418.56V401.872H1336.19V484.24ZM1427.71 484.24H1510.08V401.872H1427.71V484.24ZM1519.23 484.24H1601.6V401.872H1519.23V484.24ZM1610.75 484.24H1693.12V401.872H1610.75V484.24ZM1702.27 484.24H1784.64V401.872H1702.27V484.24ZM1784.64 392.72V310.352H1702.27V392.72H1784.64ZM1693.12 392.72V310.352H1610.75V392.72H1693.12ZM1601.6 392.72V310.352H1519.23V392.72H1601.6ZM1510.08 392.72V310.352H1427.71V392.72H1510.08ZM1418.56 392.72V310.352H1336.19V392.72H1418.56ZM1327.04 392.72V310.352H1244.67V392.72H1327.04ZM1235.52 392.72V310.352H1153.15V392.72H1235.52ZM1144 392.72V310.352H1061.63V392.72H1144ZM1061.63 301.2H1144V218.832H1061.63V301.2ZM1153.15 301.2H1235.52V218.832H1153.15V301.2ZM1244.67 301.2H1327.04V218.832H1244.67V301.2ZM1336.19 301.2H1418.56V218.832H1336.19V301.2ZM1427.71 301.2H1510.08V218.832H1427.71V301.2ZM1519.23 301.2H1601.6V218.832H1519.23V301.2ZM1610.75 301.2H1693.12V218.832H1610.75V301.2ZM1702.27 301.2H1784.64V218.832H1702.27V301.2Z" fill="#262626"/>
<path fill-rule="evenodd" clip-rule="evenodd" d="M970.111 118.16V72.4H960.959V118.16H915.199V127.312H960.959V987.6H970.111V127.312H1830.4V118.16H970.111Z" fill="#3A3A3A"/>
<path fill-rule="evenodd" clip-rule="evenodd" d="M1793.79 1857.04H1830.4V1866.19H1793.79V1902.8H1784.64V1866.19H1702.27V1902.8H1693.12V1866.19H1610.75V1902.8H1601.6V1866.19H1519.23V1902.8H1510.08V1866.19H1427.71V1902.8H1418.56V1866.19H1336.19V1902.8H1327.04V1866.19H1244.67V1902.8H1235.52V1866.19H1153.15V1902.8H1144V1866.19H1061.63V1902.8H1052.48V1866.19H915.199V1857.04H1052.48V1774.67H915.199V1765.52H1052.48V1683.15H915.199V1674H1052.48V1591.63H915.199V1582.48H1052.48V1500.11H915.199V1490.96H1052.48V1408.59H915.199V1399.44H1052.48V1317.07H915.199V1307.92H1052.48V1225.55H915.199V1216.4H1052.48V1134.03H915.199V1124.88H1052.48V987.6H1061.63V1124.88H1144V987.6H1153.15V1124.88H1235.52V987.6H1244.67V1124.88H1327.04V987.6H1336.19V1124.88H1418.56V987.6H1427.71V1124.88H1510.08V987.6H1519.23V1124.88H1601.6V987.6H1610.75V1124.88H1693.12V987.6H1702.27V1124.88H1784.64V987.6H1793.79V1124.88H1830.4V1134.03H1793.79V1216.4H1830.4V1225.55H1793.79V1307.92H1830.4V1317.07H1793.79V1399.44H1830.4V1408.59H1793.79V1490.96H1830.4V1500.11H1793.79V1582.48H1830.4V1591.63H1793.79V1674H1830.4V1683.15H1793.79V1765.52H1830.4V1774.67H1793.79V1857.04ZM1784.64 1857.04V1774.67H1702.27V1857.04H1784.64ZM1693.12 1857.04V1774.67H1610.75V1857.04H1693.12ZM1601.6 1857.04V1774.67H1519.23V1857.04H1601.6ZM1510.08 1857.04V1774.67H1427.71V1857.04H1510.08ZM1418.56 1857.04V1774.67H1336.19V1857.04H1418.56ZM1327.04 1857.04V1774.67H1244.67V1857.04H1327.04ZM1235.52 1857.04V1774.67H1153.15V1857.04H1235.52ZM1144 1857.04V1774.67H1061.63V1857.04H1144ZM1061.63 1765.52H1144V1683.15H1061.63V1765.52ZM1153.15 1765.52H1235.52V1683.15H1153.15V1765.52ZM1244.67 1765.52H1327.04V1683.15H1244.67V1765.52ZM1336.19 1765.52H1418.56V1683.15H1336.19V1765.52ZM1427.71 1765.52H1510.08V1683.15H1427.71V1765.52ZM1519.23 1765.52H1601.6V1683.15H1519.23V1765.52ZM1610.75 1765.52H1693.12V1683.15H1610.75V1765.52ZM1702.27 1765.52H1784.64V1683.15H1702.27V1765.52ZM1784.64 1674V1591.63H1702.27V1674H1784.64ZM1693.12 1674V1591.63H1610.75V1674H1693.12ZM1601.6 1674V1591.63H1519.23V1674H1601.6ZM1510.08 1674V1591.63H1427.71V1674H1510.08ZM1418.56 1674V1591.63H1336.19V1674H1418.56ZM1327.04 1674V1591.63H1244.67V1674H1327.04ZM1235.52 1674V1591.63H1153.15V1674H1235.52ZM1144 1674V1591.63H1061.63V1674H1144ZM1061.63 1582.48H1144V1500.11H1061.63V1582.48ZM1153.15 1582.48H1235.52V1500.11H1153.15V1582.48ZM1244.67 1582.48H1327.04V1500.11H1244.67V1582.48ZM1336.19 1582.48H1418.56V1500.11H1336.19V1582.48ZM1427.71 1582.48H1510.08V1500.11H1427.71V1582.48ZM1519.23 1582.48H1601.6V1500.11H1519.23V1582.48ZM1610.75 1582.48H1693.12V1500.11H1610.75V1582.48ZM1702.27 1582.48H1784.64V1500.11H1702.27V1582.48ZM1784.64 1490.96V1408.59H1702.27V1490.96H1784.64ZM1693.12 1490.96V1408.59H1610.75V1490.96H1693.12ZM1601.6 1490.96V1408.59H1519.23V1490.96H1601.6ZM1510.08 1490.96V1408.59H1427.71V1490.96H1510.08ZM1418.56 1490.96V1408.59H1336.19V1490.96H1418.56ZM1327.04 1490.96V1408.59H1244.67V1490.96H1327.04ZM1235.52 1490.96V1408.59H1153.15V1490.96H1235.52ZM1144 1490.96V1408.59H1061.63V1490.96H1144ZM1061.63 1399.44H1144V1317.07H1061.63V1399.44ZM1153.15 1399.44H1235.52V1317.07H1153.15V1399.44ZM1244.67 1399.44H1327.04V1317.07H1244.67V1399.44ZM1336.19 1399.44H1418.56V1317.07H1336.19V1399.44ZM1427.71 1399.44H1510.08V1317.07H1427.71V1399.44ZM1519.23 1399.44H1601.6V1317.07H1519.23V1399.44ZM1610.75 1399.44H1693.12V1317.07H1610.75V1399.44ZM1702.27 1399.44H1784.64V1317.07H1702.27V1399.44ZM1784.64 1307.92V1225.55H1702.27V1307.92H1784.64ZM1693.12 1307.92V1225.55H1610.75V1307.92H1693.12ZM1601.6 1307.92V1225.55H1519.23V1307.92H1601.6ZM1510.08 1307.92V1225.55H1427.71V1307.92H1510.08ZM1418.56 1307.92V1225.55H1336.19V1307.92H1418.56ZM1327.04 1307.92V1225.55H1244.67V1307.92H1327.04ZM1235.52 1307.92V1225.55H1153.15V1307.92H1235.52ZM1144 1307.92V1225.55H1061.63V1307.92H1144ZM1061.63 1216.4H1144V1134.03H1061.63V1216.4ZM1153.15 1216.4H1235.52V1134.03H1153.15V1216.4ZM1244.67 1216.4H1327.04V1134.03H1244.67V1216.4ZM1336.19 1216.4H1418.56V1134.03H1336.19V1216.4ZM1427.71 1216.4H1510.08V1134.03H1427.71V1216.4ZM1519.23 1216.4H1601.6V1134.03H1519.23V1216.4ZM1610.75 1216.4H1693.12V1134.03H1610.75V1216.4ZM1702.27 1216.4H1784.64V1134.03H1702.27V1216.4Z" fill="#262626"/>
<path fill-rule="evenodd" clip-rule="evenodd" d="M970.111 1033.36V987.6H960.959V1033.36H915.199V1042.51H960.959V1902.8H970.111V1042.51H1830.4V1033.36H970.111Z" fill="#3A3A3A"/>
<path fill-rule="evenodd" clip-rule="evenodd" d="M2708.99 26.64H2745.6V35.792H2708.99V72.4H2699.84V35.792H2617.47V72.4H2608.32V35.792H2525.95V72.4H2516.8V35.792H2434.43V72.4H2425.28V35.792H2342.91V72.4H2333.76V35.792H2251.39V72.4H2242.24V35.792H2159.87V72.4H2150.72V35.792H2068.35V72.4H2059.2V35.792H1976.83V72.4H1967.68V35.792H1830.4V26.64H1967.68V-55.728H1830.4V-64.88H1967.68V-147.248H1830.4V-156.4H1967.68V-238.768H1830.4V-247.92H1967.68V-330.288H1830.4V-339.44H1967.68V-421.808H1830.4V-430.96H1967.68V-513.328H1830.4V-522.48H1967.68V-604.848H1830.4V-614H1967.68V-696.368H1830.4V-705.52H1967.68V-842.8H1976.83V-705.52H2059.2V-842.8H2068.35V-705.52H2150.72V-842.8H2159.87V-705.52H2242.24V-842.8H2251.39V-705.52H2333.76V-842.8H2342.91V-705.52H2425.28V-842.8H2434.43V-705.52H2516.8V-842.8H2525.95V-705.52H2608.32V-842.8H2617.47V-705.52H2699.84V-842.8H2708.99V-705.52H2745.6V-696.368H2708.99V-614H2745.6V-604.848H2708.99V-522.48H2745.6V-513.328H2708.99V-430.96H2745.6V-421.808H2708.99V-339.44H2745.6V-330.288H2708.99V-247.92H2745.6V-238.768H2708.99V-156.4H2745.6V-147.248H2708.99V-64.88H2745.6V-55.728H2708.99V26.64ZM2699.84 26.64V-55.728H2617.47V26.64H2699.84ZM2608.32 26.64V-55.728H2525.95V26.64H2608.32ZM2516.8 26.64V-55.728H2434.43V26.64H2516.8ZM2425.28 26.64V-55.728H2342.91V26.64H2425.28ZM2333.76 26.64V-55.728H2251.39V26.64H2333.76ZM2242.24 26.64V-55.728H2159.87V26.64H2242.24ZM2150.72 26.64V-55.728H2068.35V26.64H2150.72ZM2059.2 26.64V-55.728H1976.83V26.64H2059.2ZM1976.83 -64.88H2059.2V-147.248H1976.83V-64.88ZM2068.35 -64.88H2150.72V-147.248H2068.35V-64.88ZM2159.87 -64.88H2242.24V-147.248H2159.87V-64.88ZM2251.39 -64.88H2333.76V-147.248H2251.39V-64.88ZM2342.91 -64.88H2425.28V-147.248H2342.91V-64.88ZM2434.43 -64.88H2516.8V-147.248H2434.43V-64.88ZM2525.95 -64.88H2608.32V-147.248H2525.95V-64.88ZM2617.47 -64.88H2699.84V-147.248H2617.47V-64.88ZM2699.84 -156.4V-238.768H2617.47V-156.4H2699.84ZM2608.32 -156.4V-238.768H2525.95V-156.4H2608.32ZM2516.8 -156.4V-238.768H2434.43V-156.4H2516.8ZM2425.28 -156.4V-238.768H2342.91V-156.4H2425.28ZM2333.76 -156.4V-238.768H2251.39V-156.4H2333.76ZM2242.24 -156.4V-238.768H2159.87V-156.4H2242.24ZM2150.72 -156.4V-238.768H2068.35V-156.4H2150.72ZM2059.2 -156.4V-238.768H1976.83V-156.4H2059.2ZM1976.83 -247.92H2059.2V-330.288H1976.83V-247.92ZM2068.35 -247.92H2150.72V-330.288H2068.35V-247.92ZM2159.87 -247.92H2242.24V-330.288H2159.87V-247.92ZM2251.39 -247.92H2333.76V-330.288H2251.39V-247.92ZM2342.91 -247.92H2425.28V-330.288H2342.91V-247.92ZM2434.43 -247.92H2516.8V-330.288H2434.43V-247.92ZM2525.95 -247.92H2608.32V-330.288H2525.95V-247.92ZM2617.47 -247.92H2699.84V-330.288H2617.47V-247.92ZM2699.84 -339.44V-421.808H2617.47V-339.44H2699.84ZM2608.32 -339.44V-421.808H2525.95V-339.44H2608.32ZM2516.8 -339.44V-421.808H2434.43V-339.44H2516.8ZM2425.28 -339.44V-421.808H2342.91V-339.44H2425.28ZM2333.76 -339.44V-421.808H2251.39V-339.44H2333.76ZM2242.24 -339.44V-421.808H2159.87V-339.44H2242.24ZM2150.72 -339.44V-421.808H2068.35V-339.44H2150.72ZM2059.2 -339.44V-421.808H1976.83V-339.44H2059.2ZM1976.83 -430.96H2059.2V-513.328H1976.83V-430.96ZM2068.35 -430.96H2150.72V-513.328H2068.35V-430.96ZM2159.87 -430.96H2242.24V-513.328H2159.87V-430.96ZM2251.39 -430.96H2333.76V-513.328H2251.39V-430.96ZM2342.91 -430.96H2425.28V-513.328H2342.91V-430.96ZM2434.43 -430.96H2516.8V-513.328H2434.43V-430.96ZM2525.95 -430.96H2608.32V-513.328H2525.95V-430.96ZM2617.47 -430.96H2699.84V-513.328H2617.47V-430.96ZM2699.84 -522.48V-604.848H2617.47V-522.48H2699.84ZM2608.32 -522.48V-604.848H2525.95V-522.48H2608.32ZM2516.8 -522.48V-604.848H2434.43V-522.48H2516.8ZM2425.28 -522.48V-604.848H2342.91V-522.48H2425.28ZM2333.76 -522.48V-604.848H2251.39V-522.48H2333.76ZM2242.24 -522.48V-604.848H2159.87V-522.48H2242.24ZM2150.72 -522.48V-604.848H2068.35V-522.48H2150.72ZM2059.2 -522.48V-604.848H1976.83V-522.48H2059.2ZM1976.83 -614H2059.2V-696.368H1976.83V-614ZM2068.35 -614H2150.72V-696.368H2068.35V-614ZM2159.87 -614H2242.24V-696.368H2159.87V-614ZM2251.39 -614H2333.76V-696.368H2251.39V-614ZM2342.91 -614H2425.28V-696.368H2342.91V-614ZM2434.43 -614H2516.8V-696.368H2434.43V-614ZM2525.95 -614H2608.32V-696.368H2525.95V-614ZM2617.47 -614H2699.84V-696.368H2617.47V-614Z" fill="#262626"/>
<path fill-rule="evenodd" clip-rule="evenodd" d="M1885.31 -797.04V-842.8H1876.16V-797.04H1830.4V-787.888H1876.16V72.4H1885.31V-787.888H2745.6V-797.04H1885.31Z" fill="#3A3A3A"/>
<path fill-rule="evenodd" clip-rule="evenodd" d="M2708.99 941.84H2745.6V950.992H2708.99V987.6H2699.84V950.992H2617.47V987.6H2608.32V950.992H2525.95V987.6H2516.8V950.992H2434.43V987.6H2425.28V950.992H2342.91V987.6H2333.76V950.992H2251.39V987.6H2242.24V950.992H2159.87V987.6H2150.72V950.992H2068.35V987.6H2059.2V950.992H1976.83V987.6H1967.68V950.992H1830.4V941.84H1967.68V859.472H1830.4V850.32H1967.68V767.952H1830.4V758.8H1967.68V676.432H1830.4V667.28H1967.68V584.912H1830.4V575.76H1967.68V493.392H1830.4V484.24H1967.68V401.872H1830.4V392.72H1967.68V310.352H1830.4V301.2H1967.68V218.832H1830.4V209.68H1967.68V72.4H1976.83V209.68H2059.2V72.4H2068.35V209.68H2150.72V72.4H2159.87V209.68H2242.24V72.4H2251.39V209.68H2333.76V72.4H2342.91V209.68H2425.28V72.4H2434.43V209.68H2516.8V72.4H2525.95V209.68H2608.32V72.4H2617.47V209.68H2699.84V72.4H2708.99V209.68H2745.6V218.832H2708.99V301.2H2745.6V310.352H2708.99V392.72H2745.6V401.872H2708.99V484.24H2745.6V493.392H2708.99V575.76H2745.6V584.912H2708.99V667.28H2745.6V676.432H2708.99V758.8H2745.6V767.952H2708.99V850.32H2745.6V859.472H2708.99V941.84ZM2699.84 941.84V859.472H2617.47V941.84H2699.84ZM2608.32 941.84V859.472H2525.95V941.84H2608.32ZM2516.8 941.84V859.472H2434.43V941.84H2516.8ZM2425.28 941.84V859.472H2342.91V941.84H2425.28ZM2333.76 941.84V859.472H2251.39V941.84H2333.76ZM2242.24 941.84V859.472H2159.87V941.84H2242.24ZM2150.72 941.84V859.472H2068.35V941.84H2150.72ZM2059.2 941.84V859.472H1976.83V941.84H2059.2ZM1976.83 850.32H2059.2V767.952H1976.83V850.32ZM2068.35 850.32H2150.72V767.952H2068.35V850.32ZM2159.87 850.32H2242.24V767.952H2159.87V850.32ZM2251.39 850.32H2333.76V767.952H2251.39V850.32ZM2342.91 850.32H2425.28V767.952H2342.91V850.32ZM2434.43 850.32H2516.8V767.952H2434.43V850.32ZM2525.95 850.32H2608.32V767.952H2525.95V850.32ZM2617.47 850.32H2699.84V767.952H2617.47V850.32ZM2699.84 758.8V676.432H2617.47V758.8H2699.84ZM2608.32 758.8V676.432H2525.95V758.8H2608.32ZM2516.8 758.8V676.432H2434.43V758.8H2516.8ZM2425.28 758.8V676.432H2342.91V758.8H2425.28ZM2333.76 758.8V676.432H2251.39V758.8H2333.76ZM2242.24 758.8V676.432H2159.87V758.8H2242.24ZM2150.72 758.8V676.432H2068.35V758.8H2150.72ZM2059.2 758.8V676.432H1976.83V758.8H2059.2ZM1976.83 667.28H2059.2V584.912H1976.83V667.28ZM2068.35 667.28H2150.72V584.912H2068.35V667.28ZM2159.87 667.28H2242.24V584.912H2159.87V667.28ZM2251.39 667.28H2333.76V584.912H2251.39V667.28ZM2342.91 667.28H2425.28V584.912H2342.91V667.28ZM2434.43 667.28H2516.8V584.912H2434.43V667.28ZM2525.95 667.28H2608.32V584.912H2525.95V667.28ZM2617.47 667.28H2699.84V584.912H2617.47V667.28ZM2699.84 575.76V493.392H2617.47V575.76H2699.84ZM2608.32 575.76V493.392H2525.95V575.76H2608.32ZM2516.8 575.76V493.392H2434.43V575.76H2516.8ZM2425.28 575.76V493.392H2342.91V575.76H2425.28ZM2333.76 575.76V493.392H2251.39V575.76H2333.76ZM2242.24 575.76V493.392H2159.87V575.76H2242.24ZM2150.72 575.76V493.392H2068.35V575.76H2150.72ZM2059.2 575.76V493.392H1976.83V575.76H2059.2ZM1976.83 484.24H2059.2V401.872H1976.83V484.24ZM2068.35 484.24H2150.72V401.872H2068.35V484.24ZM2159.87 484.24H2242.24V401.872H2159.87V484.24ZM2251.39 484.24H2333.76V401.872H2251.39V484.24ZM2342.91 484.24H2425.28V401.872H2342.91V484.24ZM2434.43 484.24H2516.8V401.872H2434.43V484.24ZM2525.95 484.24H2608.32V401.872H2525.95V484.24ZM2617.47 484.24H2699.84V401.872H2617.47V484.24ZM2699.84 392.72V310.352H2617.47V392.72H2699.84ZM2608.32 392.72V310.352H2525.95V392.72H2608.32ZM2516.8 392.72V310.352H2434.43V392.72H2516.8ZM2425.28 392.72V310.352H2342.91V392.72H2425.28ZM2333.76 392.72V310.352H2251.39V392.72H2333.76ZM2242.24 392.72V310.352H2159.87V392.72H2242.24ZM2150.72 392.72V310.352H2068.35V392.72H2150.72ZM2059.2 392.72V310.352H1976.83V392.72H2059.2ZM1976.83 301.2H2059.2V218.832H1976.83V301.2ZM2068.35 301.2H2150.72V218.832H2068.35V301.2ZM2159.87 301.2H2242.24V218.832H2159.87V301.2ZM2251.39 301.2H2333.76V218.832H2251.39V301.2ZM2342.91 301.2H2425.28V218.832H2342.91V301.2ZM2434.43 301.2H2516.8V218.832H2434.43V301.2ZM2525.95 301.2H2608.32V218.832H2525.95V301.2ZM2617.47 301.2H2699.84V218.832H2617.47V301.2Z" fill="#262626"/>
<path fill-rule="evenodd" clip-rule="evenodd" d="M1885.31 118.16V72.4H1876.16V118.16H1830.4V127.312H1876.16V987.6H1885.31V127.312H2745.6V118.16H1885.31Z" fill="#3A3A3A"/>
<path fill-rule="evenodd" clip-rule="evenodd" d="M2708.99 1857.04H2745.6V1866.19H2708.99V1902.8H2699.84V1866.19H2617.47V1902.8H2608.32V1866.19H2525.95V1902.8H2516.8V1866.19H2434.43V1902.8H2425.28V1866.19H2342.91V1902.8H2333.76V1866.19H2251.39V1902.8H2242.24V1866.19H2159.87V1902.8H2150.72V1866.19H2068.35V1902.8H2059.2V1866.19H1976.83V1902.8H1967.68V1866.19H1830.4V1857.04H1967.68V1774.67H1830.4V1765.52H1967.68V1683.15H1830.4V1674H1967.68V1591.63H1830.4V1582.48H1967.68V1500.11H1830.4V1490.96H1967.68V1408.59H1830.4V1399.44H1967.68V1317.07H1830.4V1307.92H1967.68V1225.55H1830.4V1216.4H1967.68V1134.03H1830.4V1124.88H1967.68V987.6H1976.83V1124.88H2059.2V987.6H2068.35V1124.88H2150.72V987.6H2159.87V1124.88H2242.24V987.6H2251.39V1124.88H2333.76V987.6H2342.91V1124.88H2425.28V987.6H2434.43V1124.88H2516.8V987.6H2525.95V1124.88H2608.32V987.6H2617.47V1124.88H2699.84V987.6H2708.99V1124.88H2745.6V1134.03H2708.99V1216.4H2745.6V1225.55H2708.99V1307.92H2745.6V1317.07H2708.99V1399.44H2745.6V1408.59H2708.99V1490.96H2745.6V1500.11H2708.99V1582.48H2745.6V1591.63H2708.99V1674H2745.6V1683.15H2708.99V1765.52H2745.6V1774.67H2708.99V1857.04ZM2699.84 1857.04V1774.67H2617.47V1857.04H2699.84ZM2608.32 1857.04V1774.67H2525.95V1857.04H2608.32ZM2516.8 1857.04V1774.67H2434.43V1857.04H2516.8ZM2425.28 1857.04V1774.67H2342.91V1857.04H2425.28ZM2333.76 1857.04V1774.67H2251.39V1857.04H2333.76ZM2242.24 1857.04V1774.67H2159.87V1857.04H2242.24ZM2150.72 1857.04V1774.67H2068.35V1857.04H2150.72ZM2059.2 1857.04V1774.67H1976.83V1857.04H2059.2ZM1976.83 1765.52H2059.2V1683.15H1976.83V1765.52ZM2068.35 1765.52H2150.72V1683.15H2068.35V1765.52ZM2159.87 1765.52H2242.24V1683.15H2159.87V1765.52ZM2251.39 1765.52H2333.76V1683.15H2251.39V1765.52ZM2342.91 1765.52H2425.28V1683.15H2342.91V1765.52ZM2434.43 1765.52H2516.8V1683.15H2434.43V1765.52ZM2525.95 1765.52H2608.32V1683.15H2525.95V1765.52ZM2617.47 1765.52H2699.84V1683.15H2617.47V1765.52ZM2699.84 1674V1591.63H2617.47V1674H2699.84ZM2608.32 1674V1591.63H2525.95V1674H2608.32ZM2516.8 1674V1591.63H2434.43V1674H2516.8ZM2425.28 1674V1591.63H2342.91V1674H2425.28ZM2333.76 1674V1591.63H2251.39V1674H2333.76ZM2242.24 1674V1591.63H2159.87V1674H2242.24ZM2150.72 1674V1591.63H2068.35V1674H2150.72ZM2059.2 1674V1591.63H1976.83V1674H2059.2ZM1976.83 1582.48H2059.2V1500.11H1976.83V1582.48ZM2068.35 1582.48H2150.72V1500.11H2068.35V1582.48ZM2159.87 1582.48H2242.24V1500.11H2159.87V1582.48ZM2251.39 1582.48H2333.76V1500.11H2251.39V1582.48ZM2342.91 1582.48H2425.28V1500.11H2342.91V1582.48ZM2434.43 1582.48H2516.8V1500.11H2434.43V1582.48ZM2525.95 1582.48H2608.32V1500.11H2525.95V1582.48ZM2617.47 1582.48H2699.84V1500.11H2617.47V1582.48ZM2699.84 1490.96V1408.59H2617.47V1490.96H2699.84ZM2608.32 1490.96V1408.59H2525.95V1490.96H2608.32ZM2516.8 1490.96V1408.59H2434.43V1490.96H2516.8ZM2425.28 1490.96V1408.59H2342.91V1490.96H2425.28ZM2333.76 1490.96V1408.59H2251.39V1490.96H2333.76ZM2242.24 1490.96V1408.59H2159.87V1490.96H2242.24ZM2150.72 1490.96V1408.59H2068.35V1490.96H2150.72ZM2059.2 1490.96V1408.59H1976.83V1490.96H2059.2ZM1976.83 1399.44H2059.2V1317.07H1976.83V1399.44ZM2068.35 1399.44H2150.72V1317.07H2068.35V1399.44ZM2159.87 1399.44H2242.24V1317.07H2159.87V1399.44ZM2251.39 1399.44H2333.76V1317.07H2251.39V1399.44ZM2342.91 1399.44H2425.28V1317.07H2342.91V1399.44ZM2434.43 1399.44H2516.8V1317.07H2434.43V1399.44ZM2525.95 1399.44H2608.32V1317.07H2525.95V1399.44ZM2617.47 1399.44H2699.84V1317.07H2617.47V1399.44ZM2699.84 1307.92V1225.55H2617.47V1307.92H2699.84ZM2608.32 1307.92V1225.55H2525.95V1307.92H2608.32ZM2516.8 1307.92V1225.55H2434.43V1307.92H2516.8ZM2425.28 1307.92V1225.55H2342.91V1307.92H2425.28ZM2333.76 1307.92V1225.55H2251.39V1307.92H2333.76ZM2242.24 1307.92V1225.55H2159.87V1307.92H2242.24ZM2150.72 1307.92V1225.55H2068.35V1307.92H2150.72ZM2059.2 1307.92V1225.55H1976.83V1307.92H2059.2ZM1976.83 1216.4H2059.2V1134.03H1976.83V1216.4ZM2068.35 1216.4H2150.72V1134.03H2068.35V1216.4ZM2159.87 1216.4H2242.24V1134.03H2159.87V1216.4ZM2251.39 1216.4H2333.76V1134.03H2251.39V1216.4ZM2342.91 1216.4H2425.28V1134.03H2342.91V1216.4ZM2434.43 1216.4H2516.8V1134.03H2434.43V1216.4ZM2525.95 1216.4H2608.32V1134.03H2525.95V1216.4ZM2617.47 1216.4H2699.84V1134.03H2617.47V1216.4Z" fill="#262626"/>
<path fill-rule="evenodd" clip-rule="evenodd" d="M1885.31 1033.36V987.6H1876.16V1033.36H1830.4V1042.51H1876.16V1902.8H1885.31V1042.51H2745.6V1033.36H1885.31Z" fill="#3A3A3A"/>
<path fill-rule="evenodd" clip-rule="evenodd" d="M3624.19 26.64H3660.8V35.792H3624.19V72.4H3615.04V35.792H3532.67V72.4H3523.52V35.792H3441.15V72.4H3432V35.792H3349.63V72.4H3340.48V35.792H3258.11V72.4H3248.96V35.792H3166.59V72.4H3157.44V35.792H3075.07V72.4H3065.92V35.792H2983.55V72.4H2974.4V35.792H2892.03V72.4H2882.88V35.792H2745.6V26.64H2882.88V-55.728H2745.6V-64.88H2882.88V-147.248H2745.6V-156.4H2882.88V-238.768H2745.6V-247.92H2882.88V-330.288H2745.6V-339.44H2882.88V-421.808H2745.6V-430.96H2882.88V-513.328H2745.6V-522.48H2882.88V-604.848H2745.6V-614H2882.88V-696.368H2745.6V-705.52H2882.88V-842.8H2892.03V-705.52H2974.4V-842.8H2983.55V-705.52H3065.92V-842.8H3075.07V-705.52H3157.44V-842.8H3166.59V-705.52H3248.96V-842.8H3258.11V-705.52H3340.48V-842.8H3349.63V-705.52H3432V-842.8H3441.15V-705.52H3523.52V-842.8H3532.67V-705.52H3615.04V-842.8H3624.19V-705.52H3660.8V-696.368H3624.19V-614H3660.8V-604.848H3624.19V-522.48H3660.8V-513.328H3624.19V-430.96H3660.8V-421.808H3624.19V-339.44H3660.8V-330.288H3624.19V-247.92H3660.8V-238.768H3624.19V-156.4H3660.8V-147.248H3624.19V-64.88H3660.8V-55.728H3624.19V26.64ZM3615.04 26.64V-55.728H3532.67V26.64H3615.04ZM3523.52 26.64V-55.728H3441.15V26.64H3523.52ZM3432 26.64V-55.728H3349.63V26.64H3432ZM3340.48 26.64V-55.728H3258.11V26.64H3340.48ZM3248.96 26.64V-55.728H3166.59V26.64H3248.96ZM3157.44 26.64V-55.728H3075.07V26.64H3157.44ZM3065.92 26.64V-55.728H2983.55V26.64H3065.92ZM2974.4 26.64V-55.728H2892.03V26.64H2974.4ZM2892.03 -64.88H2974.4V-147.248H2892.03V-64.88ZM2983.55 -64.88H3065.92V-147.248H2983.55V-64.88ZM3075.07 -64.88H3157.44V-147.248H3075.07V-64.88ZM3166.59 -64.88H3248.96V-147.248H3166.59V-64.88ZM3258.11 -64.88H3340.48V-147.248H3258.11V-64.88ZM3349.63 -64.88H3432V-147.248H3349.63V-64.88ZM3441.15 -64.88H3523.52V-147.248H3441.15V-64.88ZM3532.67 -64.88H3615.04V-147.248H3532.67V-64.88ZM3615.04 -156.4V-238.768H3532.67V-156.4H3615.04ZM3523.52 -156.4V-238.768H3441.15V-156.4H3523.52ZM3432 -156.4V-238.768H3349.63V-156.4H3432ZM3340.48 -156.4V-238.768H3258.11V-156.4H3340.48ZM3248.96 -156.4V-238.768H3166.59V-156.4H3248.96ZM3157.44 -156.4V-238.768H3075.07V-156.4H3157.44ZM3065.92 -156.4V-238.768H2983.55V-156.4H3065.92ZM2974.4 -156.4V-238.768H2892.03V-156.4H2974.4ZM2892.03 -247.92H2974.4V-330.288H2892.03V-247.92ZM2983.55 -247.92H3065.92V-330.288H2983.55V-247.92ZM3075.07 -247.92H3157.44V-330.288H3075.07V-247.92ZM3166.59 -247.92H3248.96V-330.288H3166.59V-247.92ZM3258.11 -247.92H3340.48V-330.288H3258.11V-247.92ZM3349.63 -247.92H3432V-330.288H3349.63V-247.92ZM3441.15 -247.92H3523.52V-330.288H3441.15V-247.92ZM3532.67 -247.92H3615.04V-330.288H3532.67V-247.92ZM3615.04 -339.44V-421.808H3532.67V-339.44H3615.04ZM3523.52 -339.44V-421.808H3441.15V-339.44H3523.52ZM3432 -339.44V-421.808H3349.63V-339.44H3432ZM3340.48 -339.44V-421.808H3258.11V-339.44H3340.48ZM3248.96 -339.44V-421.808H3166.59V-339.44H3248.96ZM3157.44 -339.44V-421.808H3075.07V-339.44H3157.44ZM3065.92 -339.44V-421.808H2983.55V-339.44H3065.92ZM2974.4 -339.44V-421.808H2892.03V-339.44H2974.4ZM2892.03 -430.96H2974.4V-513.328H2892.03V-430.96ZM2983.55 -430.96H3065.92V-513.328H2983.55V-430.96ZM3075.07 -430.96H3157.44V-513.328H3075.07V-430.96ZM3166.59 -430.96H3248.96V-513.328H3166.59V-430.96ZM3258.11 -430.96H3340.48V-513.328H3258.11V-430.96ZM3349.63 -430.96H3432V-513.328H3349.63V-430.96ZM3441.15 -430.96H3523.52V-513.328H3441.15V-430.96ZM3532.67 -430.96H3615.04V-513.328H3532.67V-430.96ZM3615.04 -522.48V-604.848H3532.67V-522.48H3615.04ZM3523.52 -522.48V-604.848H3441.15V-522.48H3523.52ZM3432 -522.48V-604.848H3349.63V-522.48H3432ZM3340.48 -522.48V-604.848H3258.11V-522.48H3340.48ZM3248.96 -522.48V-604.848H3166.59V-522.48H3248.96ZM3157.44 -522.48V-604.848H3075.07V-522.48H3157.44ZM3065.92 -522.48V-604.848H2983.55V-522.48H3065.92ZM2974.4 -522.48V-604.848H2892.03V-522.48H2974.4ZM2892.03 -614H2974.4V-696.368H2892.03V-614ZM2983.55 -614H3065.92V-696.368H2983.55V-614ZM3075.07 -614H3157.44V-696.368H3075.07V-614ZM3166.59 -614H3248.96V-696.368H3166.59V-614ZM3258.11 -614H3340.48V-696.368H3258.11V-614ZM3349.63 -614H3432V-696.368H3349.63V-614ZM3441.15 -614H3523.52V-696.368H3441.15V-614ZM3532.67 -614H3615.04V-696.368H3532.67V-614Z" fill="#262626"/>
<path fill-rule="evenodd" clip-rule="evenodd" d="M2800.51 -797.04V-842.8H2791.36V-797.04H2745.6V-787.888H2791.36V72.4H2800.51V-787.888H3660.8V-797.04H2800.51Z" fill="#3A3A3A"/>
<path fill-rule="evenodd" clip-rule="evenodd" d="M3624.19 941.84H3660.8V950.992H3624.19V987.6H3615.04V950.992H3532.67V987.6H3523.52V950.992H3441.15V987.6H3432V950.992H3349.63V987.6H3340.48V950.992H3258.11V987.6H3248.96V950.992H3166.59V987.6H3157.44V950.992H3075.07V987.6H3065.92V950.992H2983.55V987.6H2974.4V950.992H2892.03V987.6H2882.88V950.992H2745.6V941.84H2882.88V859.472H2745.6V850.32H2882.88V767.952H2745.6V758.8H2882.88V676.432H2745.6V667.28H2882.88V584.912H2745.6V575.76H2882.88V493.392H2745.6V484.24H2882.88V401.872H2745.6V392.72H2882.88V310.352H2745.6V301.2H2882.88V218.832H2745.6V209.68H2882.88V72.4H2892.03V209.68H2974.4V72.4H2983.55V209.68H3065.92V72.4H3075.07V209.68H3157.44V72.4H3166.59V209.68H3248.96V72.4H3258.11V209.68H3340.48V72.4H3349.63V209.68H3432V72.4H3441.15V209.68H3523.52V72.4H3532.67V209.68H3615.04V72.4H3624.19V209.68H3660.8V218.832H3624.19V301.2H3660.8V310.352H3624.19V392.72H3660.8V401.872H3624.19V484.24H3660.8V493.392H3624.19V575.76H3660.8V584.912H3624.19V667.28H3660.8V676.432H3624.19V758.8H3660.8V767.952H3624.19V850.32H3660.8V859.472H3624.19V941.84ZM3615.04 941.84V859.472H3532.67V941.84H3615.04ZM3523.52 941.84V859.472H3441.15V941.84H3523.52ZM3432 941.84V859.472H3349.63V941.84H3432ZM3340.48 941.84V859.472H3258.11V941.84H3340.48ZM3248.96 941.84V859.472H3166.59V941.84H3248.96ZM3157.44 941.84V859.472H3075.07V941.84H3157.44ZM3065.92 941.84V859.472H2983.55V941.84H3065.92ZM2974.4 941.84V859.472H2892.03V941.84H2974.4ZM2892.03 850.32H2974.4V767.952H2892.03V850.32ZM2983.55 850.32H3065.92V767.952H2983.55V850.32ZM3075.07 850.32H3157.44V767.952H3075.07V850.32ZM3166.59 850.32H3248.96V767.952H3166.59V850.32ZM3258.11 850.32H3340.48V767.952H3258.11V850.32ZM3349.63 850.32H3432V767.952H3349.63V850.32ZM3441.15 850.32H3523.52V767.952H3441.15V850.32ZM3532.67 850.32H3615.04V767.952H3532.67V850.32ZM3615.04 758.8V676.432H3532.67V758.8H3615.04ZM3523.52 758.8V676.432H3441.15V758.8H3523.52ZM3432 758.8V676.432H3349.63V758.8H3432ZM3340.48 758.8V676.432H3258.11V758.8H3340.48ZM3248.96 758.8V676.432H3166.59V758.8H3248.96ZM3157.44 758.8V676.432H3075.07V758.8H3157.44ZM3065.92 758.8V676.432H2983.55V758.8H3065.92ZM2974.4 758.8V676.432H2892.03V758.8H2974.4ZM2892.03 667.28H2974.4V584.912H2892.03V667.28ZM2983.55 667.28H3065.92V584.912H2983.55V667.28ZM3075.07 667.28H3157.44V584.912H3075.07V667.28ZM3166.59 667.28H3248.96V584.912H3166.59V667.28ZM3258.11 667.28H3340.48V584.912H3258.11V667.28ZM3349.63 667.28H3432V584.912H3349.63V667.28ZM3441.15 667.28H3523.52V584.912H3441.15V667.28ZM3532.67 667.28H3615.04V584.912H3532.67V667.28ZM3615.04 575.76V493.392H3532.67V575.76H3615.04ZM3523.52 575.76V493.392H3441.15V575.76H3523.52ZM3432 575.76V493.392H3349.63V575.76H3432ZM3340.48 575.76V493.392H3258.11V575.76H3340.48ZM3248.96 575.76V493.392H3166.59V575.76H3248.96ZM3157.44 575.76V493.392H3075.07V575.76H3157.44ZM3065.92 575.76V493.392H2983.55V575.76H3065.92ZM2974.4 575.76V493.392H2892.03V575.76H2974.4ZM2892.03 484.24H2974.4V401.872H2892.03V484.24ZM2983.55 484.24H3065.92V401.872H2983.55V484.24ZM3075.07 484.24H3157.44V401.872H3075.07V484.24ZM3166.59 484.24H3248.96V401.872H3166.59V484.24ZM3258.11 484.24H3340.48V401.872H3258.11V484.24ZM3349.63 484.24H3432V401.872H3349.63V484.24ZM3441.15 484.24H3523.52V401.872H3441.15V484.24ZM3532.67 484.24H3615.04V401.872H3532.67V484.24ZM3615.04 392.72V310.352H3532.67V392.72H3615.04ZM3523.52 392.72V310.352H3441.15V392.72H3523.52ZM3432 392.72V310.352H3349.63V392.72H3432ZM3340.48 392.72V310.352H3258.11V392.72H3340.48ZM3248.96 392.72V310.352H3166.59V392.72H3248.96ZM3157.44 392.72V310.352H3075.07V392.72H3157.44ZM3065.92 392.72V310.352H2983.55V392.72H3065.92ZM2974.4 392.72V310.352H2892.03V392.72H2974.4ZM2892.03 301.2H2974.4V218.832H2892.03V301.2ZM2983.55 301.2H3065.92V218.832H2983.55V301.2ZM3075.07 301.2H3157.44V218.832H3075.07V301.2ZM3166.59 301.2H3248.96V218.832H3166.59V301.2ZM3258.11 301.2H3340.48V218.832H3258.11V301.2ZM3349.63 301.2H3432V218.832H3349.63V301.2ZM3441.15 301.2H3523.52V218.832H3441.15V301.2ZM3532.67 301.2H3615.04V218.832H3532.67V301.2Z" fill="#262626"/>
<path fill-rule="evenodd" clip-rule="evenodd" d="M2800.51 118.16V72.4H2791.36V118.16H2745.6V127.312H2791.36V987.6H2800.51V127.312H3660.8V118.16H2800.51Z" fill="#3A3A3A"/>
<path fill-rule="evenodd" clip-rule="evenodd" d="M3624.19 1857.04H3660.8V1866.19H3624.19V1902.8H3615.04V1866.19H3532.67V1902.8H3523.52V1866.19H3441.15V1902.8H3432V1866.19H3349.63V1902.8H3340.48V1866.19H3258.11V1902.8H3248.96V1866.19H3166.59V1902.8H3157.44V1866.19H3075.07V1902.8H3065.92V1866.19H2983.55V1902.8H2974.4V1866.19H2892.03V1902.8H2882.88V1866.19H2745.6V1857.04H2882.88V1774.67H2745.6V1765.52H2882.88V1683.15H2745.6V1674H2882.88V1591.63H2745.6V1582.48H2882.88V1500.11H2745.6V1490.96H2882.88V1408.59H2745.6V1399.44H2882.88V1317.07H2745.6V1307.92H2882.88V1225.55H2745.6V1216.4H2882.88V1134.03H2745.6V1124.88H2882.88V987.6H2892.03V1124.88H2974.4V987.6H2983.55V1124.88H3065.92V987.6H3075.07V1124.88H3157.44V987.6H3166.59V1124.88H3248.96V987.6H3258.11V1124.88H3340.48V987.6H3349.63V1124.88H3432V987.6H3441.15V1124.88H3523.52V987.6H3532.67V1124.88H3615.04V987.6H3624.19V1124.88H3660.8V1134.03H3624.19V1216.4H3660.8V1225.55H3624.19V1307.92H3660.8V1317.07H3624.19V1399.44H3660.8V1408.59H3624.19V1490.96H3660.8V1500.11H3624.19V1582.48H3660.8V1591.63H3624.19V1674H3660.8V1683.15H3624.19V1765.52H3660.8V1774.67H3624.19V1857.04ZM3615.04 1857.04V1774.67H3532.67V1857.04H3615.04ZM3523.52 1857.04V1774.67H3441.15V1857.04H3523.52ZM3432 1857.04V1774.67H3349.63V1857.04H3432ZM3340.48 1857.04V1774.67H3258.11V1857.04H3340.48ZM3248.96 1857.04V1774.67H3166.59V1857.04H3248.96ZM3157.44 1857.04V1774.67H3075.07V1857.04H3157.44ZM3065.92 1857.04V1774.67H2983.55V1857.04H3065.92ZM2974.4 1857.04V1774.67H2892.03V1857.04H2974.4ZM2892.03 1765.52H2974.4V1683.15H2892.03V1765.52ZM2983.55 1765.52H3065.92V1683.15H2983.55V1765.52ZM3075.07 1765.52H3157.44V1683.15H3075.07V1765.52ZM3166.59 1765.52H3248.96V1683.15H3166.59V1765.52ZM3258.11 1765.52H3340.48V1683.15H3258.11V1765.52ZM3349.63 1765.52H3432V1683.15H3349.63V1765.52ZM3441.15 1765.52H3523.52V1683.15H3441.15V1765.52ZM3532.67 1765.52H3615.04V1683.15H3532.67V1765.52ZM3615.04 1674V1591.63H3532.67V1674H3615.04ZM3523.52 1674V1591.63H3441.15V1674H3523.52ZM3432 1674V1591.63H3349.63V1674H3432ZM3340.48 1674V1591.63H3258.11V1674H3340.48ZM3248.96 1674V1591.63H3166.59V1674H3248.96ZM3157.44 1674V1591.63H3075.07V1674H3157.44ZM3065.92 1674V1591.63H2983.55V1674H3065.92ZM2974.4 1674V1591.63H2892.03V1674H2974.4ZM2892.03 1582.48H2974.4V1500.11H2892.03V1582.48ZM2983.55 1582.48H3065.92V1500.11H2983.55V1582.48ZM3075.07 1582.48H3157.44V1500.11H3075.07V1582.48ZM3166.59 1582.48H3248.96V1500.11H3166.59V1582.48ZM3258.11 1582.48H3340.48V1500.11H3258.11V1582.48ZM3349.63 1582.48H3432V1500.11H3349.63V1582.48ZM3441.15 1582.48H3523.52V1500.11H3441.15V1582.48ZM3532.67 1582.48H3615.04V1500.11H3532.67V1582.48ZM3615.04 1490.96V1408.59H3532.67V1490.96H3615.04ZM3523.52 1490.96V1408.59H3441.15V1490.96H3523.52ZM3432 1490.96V1408.59H3349.63V1490.96H3432ZM3340.48 1490.96V1408.59H3258.11V1490.96H3340.48ZM3248.96 1490.96V1408.59H3166.59V1490.96H3248.96ZM3157.44 1490.96V1408.59H3075.07V1490.96H3157.44ZM3065.92 1490.96V1408.59H2983.55V1490.96H3065.92ZM2974.4 1490.96V1408.59H2892.03V1490.96H2974.4ZM2892.03 1399.44H2974.4V1317.07H2892.03V1399.44ZM2983.55 1399.44H3065.92V1317.07H2983.55V1399.44ZM3075.07 1399.44H3157.44V1317.07H3075.07V1399.44ZM3166.59 1399.44H3248.96V1317.07H3166.59V1399.44ZM3258.11 1399.44H3340.48V1317.07H3258.11V1399.44ZM3349.63 1399.44H3432V1317.07H3349.63V1399.44ZM3441.15 1399.44H3523.52V1317.07H3441.15V1399.44ZM3532.67 1399.44H3615.04V1317.07H3532.67V1399.44ZM3615.04 1307.92V1225.55H3532.67V1307.92H3615.04ZM3523.52 1307.92V1225.55H3441.15V1307.92H3523.52ZM3432 1307.92V1225.55H3349.63V1307.92H3432ZM3340.48 1307.92V1225.55H3258.11V1307.92H3340.48ZM3248.96 1307.92V1225.55H3166.59V1307.92H3248.96ZM3157.44 1307.92V1225.55H3075.07V1307.92H3157.44ZM3065.92 1307.92V1225.55H2983.55V1307.92H3065.92ZM2974.4 1307.92V1225.55H2892.03V1307.92H2974.4ZM2892.03 1216.4H2974.4V1134.03H2892.03V1216.4ZM2983.55 1216.4H3065.92V1134.03H2983.55V1216.4ZM3075.07 1216.4H3157.44V1134.03H3075.07V1216.4ZM3166.59 1216.4H3248.96V1134.03H3166.59V1216.4ZM3258.11 1216.4H3340.48V1134.03H3258.11V1216.4ZM3349.63 1216.4H3432V1134.03H3349.63V1216.4ZM3441.15 1216.4H3523.52V1134.03H3441.15V1216.4ZM3532.67 1216.4H3615.04V1134.03H3532.67V1216.4Z" fill="#262626"/>
<path fill-rule="evenodd" clip-rule="evenodd" d="M2800.51 1033.36V987.6H2791.36V1033.36H2745.6V1042.51H2791.36V1902.8H2800.51V1042.51H3660.8V1033.36H2800.51Z" fill="#3A3A3A"/>
<path fill-rule="evenodd" clip-rule="evenodd" d="M4539.39 26.64H4576V35.792H4539.39V72.4H4530.24V35.792H4447.87V72.4H4438.72V35.792H4356.35V72.4H4347.2V35.792H4264.83V72.4H4255.68V35.792H4173.31V72.4H4164.16V35.792H4081.79V72.4H4072.64V35.792H3990.27V72.4H3981.12V35.792H3898.75V72.4H3889.6V35.792H3807.23V72.4H3798.08V35.792H3660.8V26.64H3798.08V-55.728H3660.8V-64.88H3798.08V-147.248H3660.8V-156.4H3798.08V-238.768H3660.8V-247.92H3798.08V-330.288H3660.8V-339.44H3798.08V-421.808H3660.8V-430.96H3798.08V-513.328H3660.8V-522.48H3798.08V-604.848H3660.8V-614H3798.08V-696.368H3660.8V-705.52H3798.08V-842.8H3807.23V-705.52H3889.6V-842.8H3898.75V-705.52H3981.12V-842.8H3990.27V-705.52H4072.64V-842.8H4081.79V-705.52H4164.16V-842.8H4173.31V-705.52H4255.68V-842.8H4264.83V-705.52H4347.2V-842.8H4356.35V-705.52H4438.72V-842.8H4447.87V-705.52H4530.24V-842.8H4539.39V-705.52H4576V-696.368H4539.39V-614H4576V-604.848H4539.39V-522.48H4576V-513.328H4539.39V-430.96H4576V-421.808H4539.39V-339.44H4576V-330.288H4539.39V-247.92H4576V-238.768H4539.39V-156.4H4576V-147.248H4539.39V-64.88H4576V-55.728H4539.39V26.64ZM4530.24 26.64V-55.728H4447.87V26.64H4530.24ZM4438.72 26.64V-55.728H4356.35V26.64H4438.72ZM4347.2 26.64V-55.728H4264.83V26.64H4347.2ZM4255.68 26.64V-55.728H4173.31V26.64H4255.68ZM4164.16 26.64V-55.728H4081.79V26.64H4164.16ZM4072.64 26.64V-55.728H3990.27V26.64H4072.64ZM3981.12 26.64V-55.728H3898.75V26.64H3981.12ZM3889.6 26.64V-55.728H3807.23V26.64H3889.6ZM3807.23 -64.88H3889.6V-147.248H3807.23V-64.88ZM3898.75 -64.88H3981.12V-147.248H3898.75V-64.88ZM3990.27 -64.88H4072.64V-147.248H3990.27V-64.88ZM4081.79 -64.88H4164.16V-147.248H4081.79V-64.88ZM4173.31 -64.88H4255.68V-147.248H4173.31V-64.88ZM4264.83 -64.88H4347.2V-147.248H4264.83V-64.88ZM4356.35 -64.88H4438.72V-147.248H4356.35V-64.88ZM4447.87 -64.88H4530.24V-147.248H4447.87V-64.88ZM4530.24 -156.4V-238.768H4447.87V-156.4H4530.24ZM4438.72 -156.4V-238.768H4356.35V-156.4H4438.72ZM4347.2 -156.4V-238.768H4264.83V-156.4H4347.2ZM4255.68 -156.4V-238.768H4173.31V-156.4H4255.68ZM4164.16 -156.4V-238.768H4081.79V-156.4H4164.16ZM4072.64 -156.4V-238.768H3990.27V-156.4H4072.64ZM3981.12 -156.4V-238.768H3898.75V-156.4H3981.12ZM3889.6 -156.4V-238.768H3807.23V-156.4H3889.6ZM3807.23 -247.92H3889.6V-330.288H3807.23V-247.92ZM3898.75 -247.92H3981.12V-330.288H3898.75V-247.92ZM3990.27 -247.92H4072.64V-330.288H3990.27V-247.92ZM4081.79 -247.92H4164.16V-330.288H4081.79V-247.92ZM4173.31 -247.92H4255.68V-330.288H4173.31V-247.92ZM4264.83 -247.92H4347.2V-330.288H4264.83V-247.92ZM4356.35 -247.92H4438.72V-330.288H4356.35V-247.92ZM4447.87 -247.92H4530.24V-330.288H4447.87V-247.92ZM4530.24 -339.44V-421.808H4447.87V-339.44H4530.24ZM4438.72 -339.44V-421.808H4356.35V-339.44H4438.72ZM4347.2 -339.44V-421.808H4264.83V-339.44H4347.2ZM4255.68 -339.44V-421.808H4173.31V-339.44H4255.68ZM4164.16 -339.44V-421.808H4081.79V-339.44H4164.16ZM4072.64 -339.44V-421.808H3990.27V-339.44H4072.64ZM3981.12 -339.44V-421.808H3898.75V-339.44H3981.12ZM3889.6 -339.44V-421.808H3807.23V-339.44H3889.6ZM3807.23 -430.96H3889.6V-513.328H3807.23V-430.96ZM3898.75 -430.96H3981.12V-513.328H3898.75V-430.96ZM3990.27 -430.96H4072.64V-513.328H3990.27V-430.96ZM4081.79 -430.96H4164.16V-513.328H4081.79V-430.96ZM4173.31 -430.96H4255.68V-513.328H4173.31V-430.96ZM4264.83 -430.96H4347.2V-513.328H4264.83V-430.96ZM4356.35 -430.96H4438.72V-513.328H4356.35V-430.96ZM4447.87 -430.96H4530.24V-513.328H4447.87V-430.96ZM4530.24 -522.48V-604.848H4447.87V-522.48H4530.24ZM4438.72 -522.48V-604.848H4356.35V-522.48H4438.72ZM4347.2 -522.48V-604.848H4264.83V-522.48H4347.2ZM4255.68 -522.48V-604.848H4173.31V-522.48H4255.68ZM4164.16 -522.48V-604.848H4081.79V-522.48H4164.16ZM4072.64 -522.48V-604.848H3990.27V-522.48H4072.64ZM3981.12 -522.48V-604.848H3898.75V-522.48H3981.12ZM3889.6 -522.48V-604.848H3807.23V-522.48H3889.6ZM3807.23 -614H3889.6V-696.368H3807.23V-614ZM3898.75 -614H3981.12V-696.368H3898.75V-614ZM3990.27 -614H4072.64V-696.368H3990.27V-614ZM4081.79 -614H4164.16V-696.368H4081.79V-614ZM4173.31 -614H4255.68V-696.368H4173.31V-614ZM4264.83 -614H4347.2V-696.368H4264.83V-614ZM4356.35 -614H4438.72V-696.368H4356.35V-614ZM4447.87 -614H4530.24V-696.368H4447.87V-614Z" fill="#262626"/>
<path fill-rule="evenodd" clip-rule="evenodd" d="M3715.71 -797.04V-842.8H3706.56V-797.04H3660.8V-787.888H3706.56V72.4H3715.71V-787.888H4576V-797.04H3715.71Z" fill="#3A3A3A"/>
<path fill-rule="evenodd" clip-rule="evenodd" d="M4539.39 941.84H4576V950.992H4539.39V987.6H4530.24V950.992H4447.87V987.6H4438.72V950.992H4356.35V987.6H4347.2V950.992H4264.83V987.6H4255.68V950.992H4173.31V987.6H4164.16V950.992H4081.79V987.6H4072.64V950.992H3990.27V987.6H3981.12V950.992H3898.75V987.6H3889.6V950.992H3807.23V987.6H3798.08V950.992H3660.8V941.84H3798.08V859.472H3660.8V850.32H3798.08V767.952H3660.8V758.8H3798.08V676.432H3660.8V667.28H3798.08V584.912H3660.8V575.76H3798.08V493.392H3660.8V484.24H3798.08V401.872H3660.8V392.72H3798.08V310.352H3660.8V301.2H3798.08V218.832H3660.8V209.68H3798.08V72.4H3807.23V209.68H3889.6V72.4H3898.75V209.68H3981.12V72.4H3990.27V209.68H4072.64V72.4H4081.79V209.68H4164.16V72.4H4173.31V209.68H4255.68V72.4H4264.83V209.68H4347.2V72.4H4356.35V209.68H4438.72V72.4H4447.87V209.68H4530.24V72.4H4539.39V209.68H4576V218.832H4539.39V301.2H4576V310.352H4539.39V392.72H4576V401.872H4539.39V484.24H4576V493.392H4539.39V575.76H4576V584.912H4539.39V667.28H4576V676.432H4539.39V758.8H4576V767.952H4539.39V850.32H4576V859.472H4539.39V941.84ZM4530.24 941.84V859.472H4447.87V941.84H4530.24ZM4438.72 941.84V859.472H4356.35V941.84H4438.72ZM4347.2 941.84V859.472H4264.83V941.84H4347.2ZM4255.68 941.84V859.472H4173.31V941.84H4255.68ZM4164.16 941.84V859.472H4081.79V941.84H4164.16ZM4072.64 941.84V859.472H3990.27V941.84H4072.64ZM3981.12 941.84V859.472H3898.75V941.84H3981.12ZM3889.6 941.84V859.472H3807.23V941.84H3889.6ZM3807.23 850.32H3889.6V767.952H3807.23V850.32ZM3898.75 850.32H3981.12V767.952H3898.75V850.32ZM3990.27 850.32H4072.64V767.952H3990.27V850.32ZM4081.79 850.32H4164.16V767.952H4081.79V850.32ZM4173.31 850.32H4255.68V767.952H4173.31V850.32ZM4264.83 850.32H4347.2V767.952H4264.83V850.32ZM4356.35 850.32H4438.72V767.952H4356.35V850.32ZM4447.87 850.32H4530.24V767.952H4447.87V850.32ZM4530.24 758.8V676.432H4447.87V758.8H4530.24ZM4438.72 758.8V676.432H4356.35V758.8H4438.72ZM4347.2 758.8V676.432H4264.83V758.8H4347.2ZM4255.68 758.8V676.432H4173.31V758.8H4255.68ZM4164.16 758.8V676.432H4081.79V758.8H4164.16ZM4072.64 758.8V676.432H3990.27V758.8H4072.64ZM3981.12 758.8V676.432H3898.75V758.8H3981.12ZM3889.6 758.8V676.432H3807.23V758.8H3889.6ZM3807.23 667.28H3889.6V584.912H3807.23V667.28ZM3898.75 667.28H3981.12V584.912H3898.75V667.28ZM3990.27 667.28H4072.64V584.912H3990.27V667.28ZM4081.79 667.28H4164.16V584.912H4081.79V667.28ZM4173.31 667.28H4255.68V584.912H4173.31V667.28ZM4264.83 667.28H4347.2V584.912H4264.83V667.28ZM4356.35 667.28H4438.72V584.912H4356.35V667.28ZM4447.87 667.28H4530.24V584.912H4447.87V667.28ZM4530.24 575.76V493.392H4447.87V575.76H4530.24ZM4438.72 575.76V493.392H4356.35V575.76H4438.72ZM4347.2 575.76V493.392H4264.83V575.76H4347.2ZM4255.68 575.76V493.392H4173.31V575.76H4255.68ZM4164.16 575.76V493.392H4081.79V575.76H4164.16ZM4072.64 575.76V493.392H3990.27V575.76H4072.64ZM3981.12 575.76V493.392H3898.75V575.76H3981.12ZM3889.6 575.76V493.392H3807.23V575.76H3889.6ZM3807.23 484.24H3889.6V401.872H3807.23V484.24ZM3898.75 484.24H3981.12V401.872H3898.75V484.24ZM3990.27 484.24H4072.64V401.872H3990.27V484.24ZM4081.79 484.24H4164.16V401.872H4081.79V484.24ZM4173.31 484.24H4255.68V401.872H4173.31V484.24ZM4264.83 484.24H4347.2V401.872H4264.83V484.24ZM4356.35 484.24H4438.72V401.872H4356.35V484.24ZM4447.87 484.24H4530.24V401.872H4447.87V484.24ZM4530.24 392.72V310.352H4447.87V392.72H4530.24ZM4438.72 392.72V310.352H4356.35V392.72H4438.72ZM4347.2 392.72V310.352H4264.83V392.72H4347.2ZM4255.68 392.72V310.352H4173.31V392.72H4255.68ZM4164.16 392.72V310.352H4081.79V392.72H4164.16ZM4072.64 392.72V310.352H3990.27V392.72H4072.64ZM3981.12 392.72V310.352H3898.75V392.72H3981.12ZM3889.6 392.72V310.352H3807.23V392.72H3889.6ZM3807.23 301.2H3889.6V218.832H3807.23V301.2ZM3898.75 301.2H3981.12V218.832H3898.75V301.2ZM3990.27 301.2H4072.64V218.832H3990.27V301.2ZM4081.79 301.2H4164.16V218.832H4081.79V301.2ZM4173.31 301.2H4255.68V218.832H4173.31V301.2ZM4264.83 301.2H4347.2V218.832H4264.83V301.2ZM4356.35 301.2H4438.72V218.832H4356.35V301.2ZM4447.87 301.2H4530.24V218.832H4447.87V301.2Z" fill="#262626"/>
<path fill-rule="evenodd" clip-rule="evenodd" d="M3715.71 118.16V72.4H3706.56V118.16H3660.8V127.312H3706.56V987.6H3715.71V127.312H4576V118.16H3715.71Z" fill="#3A3A3A"/>
<path fill-rule="evenodd" clip-rule="evenodd" d="M4539.39 1857.04H4576V1866.19H4539.39V1902.8H4530.24V1866.19H4447.87V1902.8H4438.72V1866.19H4356.35V1902.8H4347.2V1866.19H4264.83V1902.8H4255.68V1866.19H4173.31V1902.8H4164.16V1866.19H4081.79V1902.8H4072.64V1866.19H3990.27V1902.8H3981.12V1866.19H3898.75V1902.8H3889.6V1866.19H3807.23V1902.8H3798.08V1866.19H3660.8V1857.04H3798.08V1774.67H3660.8V1765.52H3798.08V1683.15H3660.8V1674H3798.08V1591.63H3660.8V1582.48H3798.08V1500.11H3660.8V1490.96H3798.08V1408.59H3660.8V1399.44H3798.08V1317.07H3660.8V1307.92H3798.08V1225.55H3660.8V1216.4H3798.08V1134.03H3660.8V1124.88H3798.08V987.6H3807.23V1124.88H3889.6V987.6H3898.75V1124.88H3981.12V987.6H3990.27V1124.88H4072.64V987.6H4081.79V1124.88H4164.16V987.6H4173.31V1124.88H4255.68V987.6H4264.83V1124.88H4347.2V987.6H4356.35V1124.88H4438.72V987.6H4447.87V1124.88H4530.24V987.6H4539.39V1124.88H4576V1134.03H4539.39V1216.4H4576V1225.55H4539.39V1307.92H4576V1317.07H4539.39V1399.44H4576V1408.59H4539.39V1490.96H4576V1500.11H4539.39V1582.48H4576V1591.63H4539.39V1674H4576V1683.15H4539.39V1765.52H4576V1774.67H4539.39V1857.04ZM4530.24 1857.04V1774.67H4447.87V1857.04H4530.24ZM4438.72 1857.04V1774.67H4356.35V1857.04H4438.72ZM4347.2 1857.04V1774.67H4264.83V1857.04H4347.2ZM4255.68 1857.04V1774.67H4173.31V1857.04H4255.68ZM4164.16 1857.04V1774.67H4081.79V1857.04H4164.16ZM4072.64 1857.04V1774.67H3990.27V1857.04H4072.64ZM3981.12 1857.04V1774.67H3898.75V1857.04H3981.12ZM3889.6 1857.04V1774.67H3807.23V1857.04H3889.6ZM3807.23 1765.52H3889.6V1683.15H3807.23V1765.52ZM3898.75 1765.52H3981.12V1683.15H3898.75V1765.52ZM3990.27 1765.52H4072.64V1683.15H3990.27V1765.52ZM4081.79 1765.52H4164.16V1683.15H4081.79V1765.52ZM4173.31 1765.52H4255.68V1683.15H4173.31V1765.52ZM4264.83 1765.52H4347.2V1683.15H4264.83V1765.52ZM4356.35 1765.52H4438.72V1683.15H4356.35V1765.52ZM4447.87 1765.52H4530.24V1683.15H4447.87V1765.52ZM4530.24 1674V1591.63H4447.87V1674H4530.24ZM4438.72 1674V1591.63H4356.35V1674H4438.72ZM4347.2 1674V1591.63H4264.83V1674H4347.2ZM4255.68 1674V1591.63H4173.31V1674H4255.68ZM4164.16 1674V1591.63H4081.79V1674H4164.16ZM4072.64 1674V1591.63H3990.27V1674H4072.64ZM3981.12 1674V1591.63H3898.75V1674H3981.12ZM3889.6 1674V1591.63H3807.23V1674H3889.6ZM3807.23 1582.48H3889.6V1500.11H3807.23V1582.48ZM3898.75 1582.48H3981.12V1500.11H3898.75V1582.48ZM3990.27 1582.48H4072.64V1500.11H3990.27V1582.48ZM4081.79 1582.48H4164.16V1500.11H4081.79V1582.48ZM4173.31 1582.48H4255.68V1500.11H4173.31V1582.48ZM4264.83 1582.48H4347.2V1500.11H4264.83V1582.48ZM4356.35 1582.48H4438.72V1500.11H4356.35V1582.48ZM4447.87 1582.48H4530.24V1500.11H4447.87V1582.48ZM4530.24 1490.96V1408.59H4447.87V1490.96H4530.24ZM4438.72 1490.96V1408.59H4356.35V1490.96H4438.72ZM4347.2 1490.96V1408.59H4264.83V1490.96H4347.2ZM4255.68 1490.96V1408.59H4173.31V1490.96H4255.68ZM4164.16 1490.96V1408.59H4081.79V1490.96H4164.16ZM4072.64 1490.96V1408.59H3990.27V1490.96H4072.64ZM3981.12 1490.96V1408.59H3898.75V1490.96H3981.12ZM3889.6 1490.96V1408.59H3807.23V1490.96H3889.6ZM3807.23 1399.44H3889.6V1317.07H3807.23V1399.44ZM3898.75 1399.44H3981.12V1317.07H3898.75V1399.44ZM3990.27 1399.44H4072.64V1317.07H3990.27V1399.44ZM4081.79 1399.44H4164.16V1317.07H4081.79V1399.44ZM4173.31 1399.44H4255.68V1317.07H4173.31V1399.44ZM4264.83 1399.44H4347.2V1317.07H4264.83V1399.44ZM4356.35 1399.44H4438.72V1317.07H4356.35V1399.44ZM4447.87 1399.44H4530.24V1317.07H4447.87V1399.44ZM4530.24 1307.92V1225.55H4447.87V1307.92H4530.24ZM4438.72 1307.92V1225.55H4356.35V1307.92H4438.72ZM4347.2 1307.92V1225.55H4264.83V1307.92H4347.2ZM4255.68 1307.92V1225.55H4173.31V1307.92H4255.68ZM4164.16 1307.92V1225.55H4081.79V1307.92H4164.16ZM4072.64 1307.92V1225.55H3990.27V1307.92H4072.64ZM3981.12 1307.92V1225.55H3898.75V1307.92H3981.12ZM3889.6 1307.92V1225.55H3807.23V1307.92H3889.6ZM3807.23 1216.4H3889.6V1134.03H3807.23V1216.4ZM3898.75 1216.4H3981.12V1134.03H3898.75V1216.4ZM3990.27 1216.4H4072.64V1134.03H3990.27V1216.4ZM4081.79 1216.4H4164.16V1134.03H4081.79V1216.4ZM4173.31 1216.4H4255.68V1134.03H4173.31V1216.4ZM4264.83 1216.4H4347.2V1134.03H4264.83V1216.4ZM4356.35 1216.4H4438.72V1134.03H4356.35V1216.4ZM4447.87 1216.4H4530.24V1134.03H4447.87V1216.4Z" fill="#262626"/>
<path fill-rule="evenodd" clip-rule="evenodd" d="M3715.71 1033.36V987.6H3706.56V1033.36H3660.8V1042.51H3706.56V1902.8H3715.71V1042.51H4576V1033.36H3715.71Z" fill="#3A3A3A"/>
</g>
<path d="M1208.8 623C1206.88 623 1205.08 622.28 1203.4 620.84C1201.96 619.16 1201.24 617.36 1201.24 615.44C1201.24 614.24 1201.36 613.16 1201.6 612.2L1286.2 381.08C1286.92 378.44 1288.36 376.16 1290.52 374.24C1292.92 372.08 1296.16 371 1300.24 371H1353.52C1357.6 371 1360.72 372.08 1362.88 374.24C1365.28 376.16 1366.84 378.44 1367.56 381.08L1451.8 612.2C1452.28 613.16 1452.52 614.24 1452.52 615.44C1452.52 617.36 1451.68 619.16 1450 620.84C1448.56 622.28 1446.76 623 1444.6 623H1400.32C1396.72 623 1393.96 622.16 1392.04 620.48C1390.36 618.56 1389.28 616.88 1388.8 615.44L1374.76 578.72H1278.64L1264.96 615.44C1264.48 616.88 1263.4 618.56 1261.72 620.48C1260.04 622.16 1257.16 623 1253.08 623H1208.8ZM1293.4 526.88H1360.36L1326.52 431.84L1293.4 526.88ZM1489.9 623C1487.26 623 1485.1 622.16 1483.42 620.48C1481.74 618.8 1480.9 616.64 1480.9 614V380C1480.9 377.36 1481.74 375.2 1483.42 373.52C1485.1 371.84 1487.26 371 1489.9 371H1587.82C1618.78 371 1643.14 378.2 1660.9 392.6C1678.9 406.76 1687.9 426.92 1687.9 453.08C1687.9 470.12 1683.7 484.52 1675.3 496.28C1667.14 508.04 1656.34 516.92 1642.9 522.92L1692.58 611.48C1693.3 612.92 1693.66 614.24 1693.66 615.44C1693.66 617.36 1692.82 619.16 1691.14 620.84C1689.7 622.28 1687.9 623 1685.74 623H1638.22C1633.66 623 1630.3 621.92 1628.14 619.76C1625.98 617.36 1624.42 615.2 1623.46 613.28L1582.42 534.08H1545.34V614C1545.34 616.64 1544.5 618.8 1542.82 620.48C1541.14 622.16 1538.98 623 1536.34 623H1489.9ZM1545.34 483.32H1587.1C1598.38 483.32 1606.78 480.56 1612.3 475.04C1618.06 469.52 1620.94 461.96 1620.94 452.36C1620.94 443 1618.18 435.44 1612.66 429.68C1607.38 423.92 1598.86 421.04 1587.1 421.04H1545.34V483.32ZM1832.07 626.6C1809.27 626.6 1789.71 622.88 1773.39 615.44C1757.31 608 1744.71 597.08 1735.59 582.68C1726.71 568.28 1721.79 550.4 1720.83 529.04C1720.59 519.2 1720.47 508.64 1720.47 497.36C1720.47 486.08 1720.59 475.28 1720.83 464.96C1721.79 444.08 1726.83 426.44 1735.95 412.04C1745.07 397.4 1757.79 386.36 1774.11 378.92C1790.43 371.24 1809.75 367.4 1832.07 367.4C1847.91 367.4 1862.55 369.44 1875.99 373.52C1889.43 377.36 1901.19 383.12 1911.27 390.8C1921.35 398.24 1929.15 407.36 1934.67 418.16C1940.43 428.72 1943.43 440.72 1943.67 454.16C1943.91 456.32 1943.19 458.12 1941.51 459.56C1940.07 461 1938.27 461.72 1936.11 461.72H1887.51C1884.39 461.72 1881.99 461.12 1880.31 459.92C1878.63 458.48 1877.19 455.96 1875.99 452.36C1872.63 439.64 1867.11 431 1859.43 426.44C1851.99 421.64 1842.75 419.24 1831.71 419.24C1818.51 419.24 1808.07 422.96 1800.39 430.4C1792.71 437.6 1788.51 449.72 1787.79 466.76C1787.07 486.44 1787.07 506.6 1787.79 527.24C1788.51 544.28 1792.71 556.52 1800.39 563.96C1808.07 571.16 1818.51 574.76 1831.71 574.76C1842.75 574.76 1852.11 572.36 1859.79 567.56C1867.47 562.76 1872.87 554.12 1875.99 541.64C1876.95 538.04 1878.27 535.64 1879.95 534.44C1881.87 533 1884.39 532.28 1887.51 532.28H1936.11C1938.27 532.28 1940.07 533 1941.51 534.44C1943.19 535.88 1943.91 537.68 1943.67 539.84C1943.43 553.28 1940.43 565.4 1934.67 576.2C1929.15 586.76 1921.35 595.88 1911.27 603.56C1901.19 611 1889.43 616.76 1875.99 620.84C1862.55 624.68 1847.91 626.6 1832.07 626.6ZM1963.96 623C1962.04 623 1960.24 622.28 1958.56 620.84C1957.12 619.16 1956.4 617.36 1956.4 615.44C1956.4 614.24 1956.52 613.16 1956.76 612.2L2041.36 381.08C2042.08 378.44 2043.52 376.16 2045.68 374.24C2048.08 372.08 2051.32 371 2055.4 371H2108.68C2112.76 371 2115.88 372.08 2118.04 374.24C2120.44 376.16 2122 378.44 2122.72 381.08L2206.96 612.2C2207.44 613.16 2207.68 614.24 2207.68 615.44C2207.68 617.36 2206.84 619.16 2205.16 620.84C2203.72 622.28 2201.92 623 2199.76 623H2155.48C2151.88 623 2149.12 622.16 2147.2 620.48C2145.52 618.56 2144.44 616.88 2143.96 615.44L2129.92 578.72H2033.8L2020.12 615.44C2019.64 616.88 2018.56 618.56 2016.88 620.48C2015.2 622.16 2012.32 623 2008.24 623H1963.96ZM2048.56 526.88H2115.52L2081.68 431.84L2048.56 526.88ZM2245.05 623C2242.41 623 2240.25 622.16 2238.57 620.48C2236.89 618.8 2236.05 616.64 2236.05 614V380C2236.05 377.36 2236.89 375.2 2238.57 373.52C2240.25 371.84 2242.41 371 2245.05 371H2338.65C2362.17 371 2382.21 374.84 2398.77 382.52C2415.33 389.96 2428.05 401 2436.93 415.64C2445.81 430.04 2450.61 447.92 2451.33 469.28C2451.57 479.84 2451.69 489.08 2451.69 497C2451.69 504.92 2451.57 514.04 2451.33 524.36C2450.37 546.68 2445.57 565.16 2436.93 579.8C2428.53 594.44 2416.17 605.36 2399.85 612.56C2383.77 619.52 2363.97 623 2340.45 623H2245.05ZM2300.49 571.16H2338.65C2348.97 571.16 2357.49 569.6 2364.21 566.48C2371.17 563.12 2376.33 557.96 2379.69 551C2383.29 544.04 2385.21 534.92 2385.45 523.64C2385.93 516.68 2386.17 510.44 2386.17 504.92C2386.41 499.4 2386.41 493.88 2386.17 488.36C2386.17 482.84 2385.93 476.72 2385.45 470C2384.97 453.68 2380.65 441.8 2372.49 434.36C2364.57 426.68 2352.69 422.84 2336.85 422.84H2300.49V571.16ZM2502.75 623C2500.11 623 2497.95 622.16 2496.27 620.48C2494.59 618.8 2493.75 616.64 2493.75 614V380C2493.75 377.36 2494.59 375.2 2496.27 373.52C2497.95 371.84 2500.11 371 2502.75 371H2670.87C2673.51 371 2675.67 371.84 2677.35 373.52C2679.03 375.2 2679.87 377.36 2679.87 380V413.84C2679.87 416.48 2679.03 418.64 2677.35 420.32C2675.67 422 2673.51 422.84 2670.87 422.84H2556.03V471.44H2662.95C2665.59 471.44 2667.75 472.4 2669.43 474.32C2671.11 476 2671.95 478.16 2671.95 480.8V512.12C2671.95 514.52 2671.11 516.68 2669.43 518.6C2667.75 520.28 2665.59 521.12 2662.95 521.12H2556.03V571.16H2673.75C2676.39 571.16 2678.55 572 2680.23 573.68C2681.91 575.36 2682.75 577.52 2682.75 580.16V614C2682.75 616.64 2681.91 618.8 2680.23 620.48C2678.55 622.16 2676.39 623 2673.75 623H2502.75ZM2725.53 540.92C2722.89 540.92 2720.73 540.08 2719.05 538.4C2717.37 536.72 2716.53 534.56 2716.53 531.92V498.08C2716.53 495.44 2717.37 493.28 2719.05 491.6C2720.73 489.92 2722.89 489.08 2725.53 489.08H2838.21C2840.85 489.08 2843.01 489.92 2844.69 491.6C2846.37 493.28 2847.21 495.44 2847.21 498.08V531.92C2847.21 534.56 2846.37 536.72 2844.69 538.4C2843.01 540.08 2840.85 540.92 2838.21 540.92H2725.53ZM2900.72 623C2898.08 623 2895.92 622.16 2894.24 620.48C2892.56 618.8 2891.72 616.64 2891.72 614V380C2891.72 377.36 2892.56 375.2 2894.24 373.52C2895.92 371.84 2898.08 371 2900.72 371H2994.32C3017.84 371 3037.88 374.84 3054.44 382.52C3071 389.96 3083.72 401 3092.6 415.64C3101.48 430.04 3106.28 447.92 3107 469.28C3107.24 479.84 3107.36 489.08 3107.36 497C3107.36 504.92 3107.24 514.04 3107 524.36C3106.04 546.68 3101.24 565.16 3092.6 579.8C3084.2 594.44 3071.84 605.36 3055.52 612.56C3039.44 619.52 3019.64 623 2996.12 623H2900.72ZM2956.16 571.16H2994.32C3004.64 571.16 3013.16 569.6 3019.88 566.48C3026.84 563.12 3032 557.96 3035.36 551C3038.96 544.04 3040.88 534.92 3041.12 523.64C3041.6 516.68 3041.84 510.44 3041.84 504.92C3042.08 499.4 3042.08 493.88 3041.84 488.36C3041.84 482.84 3041.6 476.72 3041.12 470C3040.64 453.68 3036.32 441.8 3028.16 434.36C3020.24 426.68 3008.36 422.84 2992.52 422.84H2956.16V571.16ZM3158.41 623C3155.77 623 3153.61 622.16 3151.93 620.48C3150.25 618.8 3149.41 616.64 3149.41 614V380C3149.41 377.36 3150.25 375.2 3151.93 373.52C3153.61 371.84 3155.77 371 3158.41 371H3268.21C3288.85 371 3305.77 373.88 3318.97 379.64C3332.17 385.4 3341.89 393.68 3348.13 404.48C3354.61 415.04 3357.85 427.64 3357.85 442.28C3357.85 450.92 3356.17 458.6 3352.81 465.32C3349.69 471.8 3345.73 477.2 3340.93 481.52C3336.37 485.84 3332.05 488.96 3327.97 490.88C3337.09 495.2 3345.13 502.28 3352.09 512.12C3359.29 521.96 3362.89 533.48 3362.89 546.68C3362.89 562.52 3359.29 576.2 3352.09 587.72C3345.13 599 3334.81 607.76 3321.13 614C3307.69 620 3291.13 623 3271.45 623H3158.41ZM3213.85 576.2H3264.25C3274.57 576.2 3282.37 573.2 3287.65 567.2C3292.93 561.2 3295.57 554.36 3295.57 546.68C3295.57 538.28 3292.81 531.2 3287.29 525.44C3282.01 519.68 3274.33 516.8 3264.25 516.8H3213.85V576.2ZM3213.85 471.08H3261.01C3270.85 471.08 3278.17 468.56 3282.97 463.52C3288.01 458.48 3290.53 452 3290.53 444.08C3290.53 436.4 3288.01 430.16 3282.97 425.36C3278.17 420.32 3270.85 417.8 3261.01 417.8H3213.85V471.08Z" fill="white"/>
</g>
<defs>
<clipPath id="clip0_1111_7654">
<rect width="4576" height="1000" fill="white"/>
</clipPath>
<clipPath id="clip1_1111_7654">
<rect width="4576" height="4576" fill="white" transform="translate(0 -1758)"/>
</clipPath>
</defs>
</svg>
