<svg width="2000" height="1000" viewBox="0 0 2000 1000" fill="none" xmlns="http://www.w3.org/2000/svg">
<path d="M398.98 589H352.96L341 550.26H282.24L270.02 589H225.04L285.36 417.4H338.92L398.98 589ZM290.56 519.84H332.68L311.62 450.42L290.56 519.84ZM500.837 417.4C521.29 417.4 537.15 422.253 548.417 431.96C559.857 441.493 565.577 454.233 565.577 470.18C565.577 487.687 559.944 501.033 548.677 510.22C537.41 519.407 521.55 524 501.097 524L496.937 526.34H462.877V589H418.937V417.4H500.837ZM494.597 494.62C503.264 494.62 509.764 492.887 514.097 489.42C518.43 485.953 520.597 480.407 520.597 472.78C520.597 465.327 518.43 459.867 514.097 456.4C509.764 452.933 503.264 451.2 494.597 451.2H462.877V494.62H494.597ZM520.857 503.98L575.717 589H526.317L482.377 513.86L520.857 503.98ZM748.518 539.86C745.224 551.82 739.938 561.7 732.658 569.5C725.378 577.127 716.711 582.76 706.658 586.4C696.604 589.867 685.511 591.6 673.378 591.6C656.044 591.6 641.051 588.133 628.398 581.2C615.744 574.093 606.038 563.953 599.278 550.78C592.518 537.607 589.138 521.747 589.138 503.2C589.138 484.653 592.518 468.793 599.278 455.62C606.038 442.447 615.744 432.393 628.398 425.46C641.051 418.353 655.958 414.8 673.118 414.8C685.078 414.8 696.084 416.533 706.138 420C716.191 423.293 724.684 428.407 731.618 435.34C738.551 442.273 743.491 451.2 746.438 462.12L707.178 477.98C704.751 467.233 700.764 459.867 695.218 455.88C689.844 451.893 682.998 449.9 674.678 449.9C666.531 449.9 659.424 451.893 653.358 455.88C647.464 459.867 642.871 465.847 639.578 473.82C636.458 481.62 634.898 491.413 634.898 503.2C634.898 514.813 636.371 524.607 639.318 532.58C642.264 540.553 646.684 546.533 652.578 550.52C658.644 554.507 666.098 556.5 674.938 556.5C683.258 556.5 690.278 554.247 695.998 549.74C701.891 545.06 705.878 537.953 707.958 528.42L748.518 539.86ZM929.39 589H883.37L871.41 550.26H812.65L800.43 589H755.45L815.77 417.4H869.33L929.39 589ZM820.97 519.84H863.09L842.03 450.42L820.97 519.84ZM1022.15 417.4C1049.01 417.4 1069.55 424.853 1083.77 439.76C1098.15 454.667 1105.35 475.813 1105.35 503.2C1105.35 530.587 1098.15 551.733 1083.77 566.64C1069.55 581.547 1049.01 589 1022.15 589H949.347V417.4H1022.15ZM1017.73 555.2C1032.29 555.2 1042.86 550.867 1049.45 542.2C1056.21 533.36 1059.59 520.36 1059.59 503.2C1059.59 486.04 1056.21 473.127 1049.45 464.46C1042.86 455.62 1032.29 451.2 1017.73 451.2H994.067V555.2H1017.73ZM1135.97 589V417.4H1269.61V451.98H1180.69V486.82H1251.41V519.32H1180.69V554.42H1272.99V589H1135.97ZM1390.63 501.38V537.52H1295.47V501.38H1390.63ZM1503.55 417.4C1530.42 417.4 1550.96 424.853 1565.17 439.76C1579.56 454.667 1586.75 475.813 1586.75 503.2C1586.75 530.587 1579.56 551.733 1565.17 566.64C1550.96 581.547 1530.42 589 1503.55 589H1430.75V417.4H1503.55ZM1499.13 555.2C1513.69 555.2 1524.27 550.867 1530.85 542.2C1537.61 533.36 1540.99 520.36 1540.99 503.2C1540.99 486.04 1537.61 473.127 1530.85 464.46C1524.27 455.62 1513.69 451.2 1499.13 451.2H1475.47V555.2H1499.13ZM1617.37 589V417.4H1700.83C1721.98 417.573 1737.58 421.647 1747.63 429.62C1757.69 437.42 1762.71 448.773 1762.71 463.68C1762.71 473.387 1759.85 481.793 1754.13 488.9C1748.41 495.833 1739.66 500.253 1727.87 502.16V502.42C1741.05 504.153 1750.84 508.747 1757.25 516.2C1763.84 523.48 1767.13 532.32 1767.13 542.72C1767.13 557.453 1761.93 568.893 1751.53 577.04C1741.13 585.013 1725.53 589 1704.73 589H1617.37ZM1660.53 557.54H1697.19C1705.34 557.54 1711.41 555.893 1715.39 552.6C1719.38 549.307 1721.37 544.54 1721.37 538.3C1721.37 532.233 1719.38 527.64 1715.39 524.52C1711.41 521.227 1705.34 519.58 1697.19 519.58H1660.53V557.54ZM1660.53 487.6H1693.03C1708.98 487.6 1716.95 481.36 1716.95 468.88C1716.95 456.4 1708.98 450.16 1693.03 450.16H1660.53V487.6Z" fill="white"/>
</svg>
